<svg xmlns:svg="http://www.w3.org/2000/svg" xmlns="http://www.w3.org/2000/svg" xmlns:xlink="http://www.w3.org/1999/xlink" viewBox="0 0 500 500" background="#f6f6f6" version="1.1">
  <metadata id="metadata3338"/>
  <style type="text/css" id="style3340">
    #rooms path {
        opacity: 1;
        fill: #999999;
        fill-opacity: 1;
        stroke: #000000;
    }

    #rooms path:hover {
        opacity: 0.5;
    }

    #rooms rect {
        fill: #cccccc;
        opacity: 0;
    }

  </style>

  <g id="walls">
    <use xlink:href="global.svg#walls"/>
  </g>
  <g id="rooms" transform="matrix(1.5986498,0,0,1.5771648,176.84094,-386.03043)">
    <path id="flat6_room" short-press='negate({topic:"Mieszkanie6",name:"bulb_6room_left"})' long-press='negate({topic:"Mieszkanie6",name:"bulb_6room_right"})' d="m -95.400139,334.64026 0,-12.16379 -3.115654,0 -3.115667,0 0.002,-6.51123 c 0.002,-9.07948 0.52999,-45.36972 0.76161,-52.3655 l 0.19154,-5.78528 38.394158,-0.0156 38.394162,-0.0156 0,44.51036 0,44.51036 -35.755857,0 -35.755857,0 0,-12.16384 z" />
    <path id="flat6_kitchen" short-press='negate({topic:"Mieszkanie6",name:"bulb_6kitchen_center"})' long-press='negate({topic:"Mieszkanie6",name:"bulb_6kitchen_desk"})' d="m -21.9,301 0,-45.5 28.6,0 28.6,0 0,21.4 0,21.4 -7.1,0 -7.1,0 0,2.1 c 0,1.9 -0.2,2.3 -2.3,3.7 -4.9,3.4 -10.6,10 -13.5,15.7 -0.6,1.2 -1.7,4.1 -2.5,6.6 -1.2,3.8 -1.5,5.7 -1.7,12.3 l -0.3,7.8 -11.3,0 -11.3,0 0,-45.5 z" />
    <path id="flat6_toilet" short-press='negate({topic:"Mieszkanie6",name:"bulb_6toilet_center"})' long-press='negate({topic:"Mieszkanie6",name:"bulb_6toilet_mirror"})' d="m-97.62 369.56c0-9.13 0.15-17.34 0.33-18.25l0.33-1.65 11.28 0 11.28 0 0.16 3.31 0.16 3.31 8.83 0.14 8.83 0.14 0.04 14.8 0.04 14.8-20.65 0-20.65 0 0-16.6z"/>
    <path id="flat6_corridor" short-press='negate({topic:"Mieszkanie6",name:"bulb_6corridor"})' d="m-53.7 370.02 0-20.37 27.25 0 27.25 0 0 17.46c0 17.11-0.02 17.46-1.06 17.46-0.58 0-1.06 0.24-1.06 0.53 0 0.33-3.35 0.53-8.99 0.53-5.64 0-8.99-0.2-8.99-0.53 0-0.3-1.59-0.53-3.7-0.53l-3.7 0 0 2.91 0 2.91-13.49 0-13.49 0 0-20.37z"/>
    <path id="flat5_corridor" short-press='negate({topic:"Mieszkanie5",name:"bulb_5corridor"})' d="m-72.22 406.79 0-17.46 7.94 0 7.94 0 0 2.38 0 2.38 14.81 0 14.81 0 0 1.32c0 0.97 0.28 1.32 1.06 1.32 1 0 1.06 0.35 1.06 6.88 0 6.53-0.05 6.88-1.06 6.88-1 0-1.06 0.35-1.06 6.88l0 6.88-22.75 0-22.75 0 0-17.46z"/>
    <path id="flat5_toilet" short-press='negate({topic:"Mieszkanie5",name:"bulb_5toilet_center"})' long-press='negate({topic:"Mieszkanie5",name:"bulb_5toilet_mirror"})' d="m-100.08 419.4c0.19-8.78 0.35-19.13 0.35-23.02l0-7.06 11.38 0 11.38 0 0 2.12c0 1.53 0.22 2.12 0.79 2.12 0.69 0 0.79 2.67 0.79 20.9l0 20.9-12.52 0-12.52 0 0.35-15.96z"/>
    <path id="flat5_kitchen" short-press='negate({topic:"Mieszkanie5",name:"bulb_5kitchen_center"})' long-press="negate({topic:"Mieszkanie5",name:"bulb_5kitchen_desk"})" d="m-103.58 502.16c0.06-7.78 0.27-20.64 0.46-28.57l0.34-14.42 3.05 0 3.05 0 0.33-1.98c0.18-1.09 0.33-5.73 0.33-10.32l0.01-8.33 11.9 0 11.9 0 0-5.82 0-5.82 9.52 0 9.52 0 0 44.71 0 44.71-25.26 0-25.26 0 0.12-14.15z"/>
    <path id="flat5_room" short-press='negate({topic:"Mieszkanie5",name:"bulb_5room_left"})' long-press='negate({topic:"Mieszkanie5",name:"bulb_5room_right"})' d="m-50.4 471.74 0.14-44.58 35.32-0.14 57.39 0.25-0.38 45.1 0.76 44.71-57.9-0.77-35.45 0 0.14-44.58z"/>
    <path id="flat8_room" short-press='negate({topic:"Mieszkanie8",name:"bulb_8room_left"})' long-press='negate({topic:"Mieszkanie8",name:"bulb_8room_right"})' d="m49.81 470.46 0-43.18L106.62 426.9l37.04 0 0 44.71 0 44.71-37.04 0-56.62 0.19z"/>
    <path id="flat8_kitchen" short-press='negate({topic:"Mieszkanie8",name:"bulb_8kitchen_center"})' long-press='negate({topic:"Mieszkanie8",name:"bulb_8kitchen_desk"})' d="m 146.83,471.61 0,-44.71 8.73,0 8.73,0 0,6.61 0,6.61 11.03,0 11.03,0 0.35,7.23 c 0.19,3.97 0.35,11 0.35,15.61 l 0,8.38 3.11,0 3.11,0 0.33,13.62 c 0.18,7.49 0.47,17.61 0.65,22.49 l 0.32,8.86 -23.87,0 -23.87,0 0,-44.71 z" />
    <path id="flat8_toilet" short-press='negate({topic:"Mieszkanie8",name:"bulb_8toilet_center"})' long-press='negate({topic:"Mieszkanie8",name:"bulb_8toilet_mirror"})' d="m166.93 412.88 0-24.07 11.64 0 11.64 0 0 6.53c0 3.59 0.16 14.42 0.35 24.07l0.35 17.55-11.99 0-11.99 0 0-24.07z"/>
    <path id="flat8_corridor" ng-click='negate({topic:"Mieszkanie8",name:"bulb_8corridor"})' d="m116.14 418.43c0-3.53-0.21-5.82-0.53-5.82-0.33 0-0.53-3.7-0.53-10.05l0-10.05 1.59 0c0.87 0 1.59-0.24 1.59-0.53 0-0.34 4.67-0.53 12.96-0.53l12.96 0 0-1.32 0-1.32 10.05 0 10.05 0 0 17.72 0 17.72-24.07 0-24.07 0 0-5.82z"/>
    <path id="flat7_toilet" short-press='negate({topic:"Mieszkanie7",name:"bulb_7toilet_center"})' long-press='negate({topic:"Mieszkanie7",name:"bulb_7toilet_mirror"})' d="m148.42 370.81 0-14.81 9.79 0 9.79 0 0-1.59 0-1.59 11.6 0c10.6 0 11.63 0.08 11.87 0.93 0.14 0.51 0.43 7.89 0.63 16.4l0.37 15.48-22.02 0-22.02 0 0-14.81z"/>
    <path id="flat7_corridor" ng-click='negate({topic:"Mieszkanie7",name:"bulb_7corridor"})' d="m117.73 385.63 0-2.65-3.7 0c-3.35 0-3.7 0.1-3.7 1.06 0 1.02-0.35 1.06-10.32 1.06l-10.32 0 0-17.46 0-17.46 26.72 0 26.72 0 0 2.7c0 2.25 0.17 2.74 1.06 2.97 1.03 0.27 1.06 0.72 1.06 15.03l0 14.75-1.85 0c-1.62 0-1.85 0.16-1.85 1.32l0 1.32-11.9 0-11.9 0 0-2.65z"/>
    <path id="flat7_room" short-press='negate({topic:"Mieszkanie7",name:"bulb_7room_left"})' long-press='negate({topic:"Mieszkanie7",name:"bulb_7room_right"})' d="m108.37 312c0.19-19.25 0.49-35.14 0.66-35.32 0.17-0.17 18.59-0.39 40.93-0.48l40.61-0.16 0.35 15.5c0.19 8.53 0.35 20.31 0.35 26.19l0 10.68-1.93 0.16-1.93 0.16 0.11 9.13 0.11 9.13-39.8 0-39.8 0 0.34-35 0 0z"/>
    <path id="flat7_kitchen" short-press='negate({topic:"Mieszkanie7",name:"bulb_7kitchen_center"})' long-press='negate({topic:"Mieszkanie7",name:"bulb_7kitchen_desk"})' d="m88.1 342.22c0-16.67-9.28-31.76-23.94-38.92-2.79-1.36-3.04-1.63-3.04-3.23l0-1.74-7.67 0-7.67 0 0-20.11 0-20.11 29.37 0 29.37 0 0 8.47c0 5.29 0.2 8.47 0.53 8.47 0.35 0 0.53 12.35 0.53 35.98l0 35.98-8.73 0-8.73 0 0-4.78z"/>
    <path d="m 86.565192,417.44655 25.490288,0 0,-2.16353 c 0,-1.55646 0.22684,-2.15708 0.81662,-2.15708 0.69348,0 0.81662,-1.49833 0.81662,-10.23641 0,-8.73807 -0.11666,-10.2364 -0.81662,-10.2364 -0.60274,0 -0.81662,-0.63291 -0.81662,-2.42185 l 0,-2.42832 -10.14296,0 -10.142986,0 0,1.88582 0,1.88581 -6.027442,0 -6.02745,0 -0.01296,-26.80839 c -0.01296,-19.37489 -0.220363,-28.08068 -0.738847,-31.39379 -2.74152,-17.47616 -17.86847,-29.4563 -34.434234,-29.79212 l 0,0 c -4.640483,-0.0969 -9.391148,0.72332 -14.012192,2.58977 -11.666031,4.7081 -19.974837,15.03491 -21.8802872,27.20235 -0.5314515,3.31311 -0.725887,12.0189 -0.7388467,31.39379 l -0.01296,26.80839 -5.7617292,0 -5.7617211,0 0,-1.62102 0,-1.62104 -9.3133728,0 -9.313382,0 0,4.30769 c 0,3.95247 -0.09074,4.30768 -1.10179,4.30768 -1.043464,0 -1.095311,0.3552 -1.095311,7.00725 0,6.65205 0.05832,7.00726 1.095311,7.00726 0.972169,0 1.10179,0.3552 1.10179,3.22915 l 0,3.22915 c 45.666018,0.25834 92.213472,-0.13563 108.831082,0.0194 m 26.268018,-19.16177 c 0.0324,0.0129 0.0713,0.0645 0.11018,0.155 0.15555,0.36812 0.15555,0.9752 0,1.34332 -0.15555,0.37458 -0.27868,0.071 -0.27868,-0.67166 0,-0.55541 0.0713,-0.86541 0.1685,-0.82666 z"/>
    <rect id="staircase_1right" short-press='negate({topic:"firstfloor",name:"bulb_1stairs_right_main"})' long-press='negate({topic:"firstfloor",name:"bulb_1stairs_right_small"})' width="63.49" height="26.46" x="47.18" y="388.94" />
    <rect id="staircase_1left" short-press='negate({topic:"firstfloor",name:"bulb_1stairs_left_main"})' long-press='negate({topic:"firstfloor",name:"bulb_1stairs_left_small"})' width="63.49" height="26.46" x="-18.42" y="388.41"/>
  </g>
  <g id="windows">
    <use xlink:href="global.svg#windows"/>
  </g>
  <g id="bulbs" transform="matrix(1.5986498,0,0,1.5771648,176.84094,-386.03043)">
    <g id="bulb_8room" transform="matrix(0.0434451,0,0,0.04487424,83.275737,459.66227)">
      <use xlink:href="global.svg#bulb_on" ng-if="(state.outputs.bulb_8room_left==true)&&(state.outputs.bulb_8room_right==true)" />
      <use xlink:href="global.svg#bulb_right_on" ng-if="(state.outputs.bulb_8room_left==false)&&(state.outputs.bulb_8room_right==true)" />
      <use xlink:href="global.svg#bulb_left_on" ng-if="(state.outputs.bulb_8room_left==true)&&(state.outputs.bulb_8room_right==false)" />
      <use xlink:href="global.svg#bulb_off" ng-if="(state.outputs.bulb_8room_left==false)&&(state.outputs.bulb_8room_right==false)" />
    </g>
    <g id="bulb_6room" transform="matrix(0.0434451,0,0,0.04487424,-72.11893,284.66447)">
      <use xlink:href="global.svg#bulb_on" ng-if="(state.outputs.bulb_6room_left==true)&&(state.outputs.bulb_6room_right==true)" />
      <use xlink:href="global.svg#bulb_right_on" ng-if="(state.outputs.bulb_6room_left==false)&&(state.outputs.bulb_6room_right==true)" />
      <use xlink:href="global.svg#bulb_left_on" ng-if="(state.outputs.bulb_6room_left==true)&&(state.outputs.bulb_6room_right==false)" />
      <use xlink:href="global.svg#bulb_off" ng-if="(state.outputs.bulb_6room_left==false)&&(state.outputs.bulb_6room_right==false)" />
    </g>
    <g id="bulb_7room" transform="matrix(0.0434451,0,0,0.04487424,137.25857,296.23471)">
      <use xlink:href="global.svg#bulb_on" ng-if="(state.outputs.bulb_7room_left==true)&&(state.outputs.bulb_7room_right==true)" />
      <use xlink:href="global.svg#bulb_right_on" ng-if="(state.outputs.bulb_7room_left==false)&&(state.outputs.bulb_7room_right==true)" />
      <use xlink:href="global.svg#bulb_left_on" ng-if="(state.outputs.bulb_7room_left==true)&&(state.outputs.bulb_7room_right==false)" />
      <use xlink:href="global.svg#bulb_off" ng-if="(state.outputs.bulb_7room_left==false)&&(state.outputs.bulb_7room_right==false)" />
    </g>
    <g id="bulb_5room" transform="matrix(0.0434451,0,0,0.04487424,-14.724263,459.66227)">
      <use xlink:href="global.svg#bulb_on" ng-if="(state.outputs.bulb_5room_left==true)&&(state.outputs.bulb_5room_right==true)" />
      <use xlink:href="global.svg#bulb_right_on" ng-if="(state.outputs.bulb_5room_left==false)&&(state.outputs.bulb_5room_right==true)" />
      <use xlink:href="global.svg#bulb_left_on" ng-if="(state.outputs.bulb_5room_left==true)&&(state.outputs.bulb_5room_right==false)" />
      <use xlink:href="global.svg#bulb_off" ng-if="(state.outputs.bulb_5room_left==false)&&(state.outputs.bulb_5room_right==false)" />
    </g>
    <g id="bulb_8kitchen" transform="matrix(0.0434451,0,0,0.04487424,157.27574,459.66227)">
      <use xlink:href="global.svg#bulb_on" ng-if="(state.outputs.bulb_8kitchen_desk==true)&&(state.outputs.bulb_8kitchen_center==true)" />
      <use xlink:href="global.svg#bulb_right_on" ng-if="(state.outputs.bulb_8kitchen_desk==true)&&(state.outputs.bulb_8kitchen_center==false)" />
      <use xlink:href="global.svg#bulb_left_on" ng-if="(state.outputs.bulb_8kitchen_desk==false)&&(state.outputs.bulb_8kitchen_center==true)" />
      <use xlink:href="global.svg#bulb_off" ng-if="(state.outputs.bulb_8kitchen_desk==false)&&(state.outputs.bulb_8kitchen_center==false)" />
    </g>
    <g id="bulb_5kitchen" transform="matrix(0.0434451,0,0,0.04487424,-90.724263,459.66227)">
      <use xlink:href="global.svg#bulb_on" ng-if="(state.outputs.bulb_5kitchen_desk==true)&&(state.outputs.bulb_5kitchen_center==true)" />
      <use xlink:href="global.svg#bulb_left_on" ng-if="(state.outputs.bulb_5kitchen_desk==true)&&(state.outputs.bulb_5kitchen_center==false)" />
      <use xlink:href="global.svg#bulb_right_on" ng-if="(state.outputs.bulb_5kitchen_desk==false)&&(state.outputs.bulb_5kitchen_center==true)" />
      <use xlink:href="global.svg#bulb_off" ng-if="(state.outputs.bulb_5kitchen_desk==false)&&(state.outputs.bulb_5kitchen_center==false)" />
    </g>
    <g id="bulb_6kitchen" transform="matrix(0.0434451,0,0,0.04487424,-11.113697,276.4668)">
      <use xlink:href="global.svg#bulb_on" ng-if="(state.outputs.bulb_6kitchen_desk==true)&&(state.outputs.bulb_6kitchen_center==true)" />
      <use xlink:href="global.svg#bulb_right_on" ng-if="(state.outputs.bulb_6kitchen_desk==true)&&(state.outputs.bulb_6kitchen_center==false)" />
      <use xlink:href="global.svg#bulb_left_on" ng-if="(state.outputs.bulb_6kitchen_desk==false)&&(state.outputs.bulb_6kitchen_center==true)" />
      <use xlink:href="global.svg#bulb_off" ng-if="(state.outputs.bulb_6kitchen_desk==false)&&(state.outputs.bulb_6kitchen_center==false)" />
    </g>
    <g id="bulb_7kitchen" transform="matrix(0.0434451,0,0,0.04487424,68.682274,276.85247)">
      <use xlink:href="global.svg#bulb_on" ng-if="(state.outputs.bulb_7kitchen_desk==true)&&(state.outputs.bulb_7kitchen_center==true)" />
      <use xlink:href="global.svg#bulb_left_on" ng-if="(state.outputs.bulb_7kitchen_desk==true)&&(state.outputs.bulb_7kitchen_center==false)" />
      <use xlink:href="global.svg#bulb_right_on" ng-if="(state.outputs.bulb_7kitchen_desk==false)&&(state.outputs.bulb_7kitchen_center==true)" />
      <use xlink:href="global.svg#bulb_off" ng-if="(state.outputs.bulb_7kitchen_desk==false)&&(state.outputs.bulb_7kitchen_center==false)" />
    </g>
    <g id="bulb_8toilet" transform="matrix(0.0434451,0,0,0.04487424,167.27574,401.66227)">
      <use xlink:href="global.svg#bulb_on" ng-if="(state.outputs.bulb_8toilet_mirror==true)&&(state.outputs.bulb_8toilet_center==true)" />
      <use xlink:href="global.svg#bulb_right_on" ng-if="(state.outputs.bulb_8toilet_mirror==true)&&(state.outputs.bulb_8toilet_center==false)" />
      <use xlink:href="global.svg#bulb_left_on" ng-if="(state.outputs.bulb_8toilet_mirror==false)&&(state.outputs.bulb_8toilet_center==true)" />
      <use xlink:href="global.svg#bulb_off" ng-if="(state.outputs.bulb_8toilet_mirror==false)&&(state.outputs.bulb_8toilet_center==false)" />
    </g>
    <g id="bulb_7toilet" transform="matrix(0.0434451,0,0,0.04487424,159.23702,358.08103)">
      <use xlink:href="global.svg#bulb_on" ng-if="(state.outputs.bulb_7toilet_mirror==true)&&(state.outputs.bulb_7toilet_center==true)"/>
      <use xlink:href="global.svg#bulb_right_on" ng-if="(state.outputs.bulb_7toilet_mirror==true)&&(state.outputs.bulb_7toilet_center==false)"/>
      <use xlink:href="global.svg#bulb_left_on" ng-if="(state.outputs.bulb_7toilet_mirror==false)&&(state.outputs.bulb_7toilet_center==true)"/>
      <use xlink:href="global.svg#bulb_off" ng-if="(state.outputs.bulb_7toilet_mirror==false)&&(state.outputs.bulb_7toilet_center==false)"/>
    </g>
    <g id="bulb_6toilet" transform="matrix(0.0434451,0,0,0.04487424,-87.101757,358.46671)">
      <use xlink:href="global.svg#bulb_on" ng-if="(state.outputs.bulb_6toilet_mirror==true)&&(state.outputs.bulb_6toilet_center==true)"/>
      <use xlink:href="global.svg#bulb_left_on" ng-if="(state.outputs.bulb_6toilet_mirror==true)&&(state.outputs.bulb_6toilet_center==false)"/>
      <use xlink:href="global.svg#bulb_right_on" ng-if="(state.outputs.bulb_6toilet_mirror==false)&&(state.outputs.bulb_6toilet_center==true)"/>
      <use xlink:href="global.svg#bulb_off" ng-if="(state.outputs.bulb_6toilet_mirror==false)&&(state.outputs.bulb_6toilet_center==false)"/>
    </g>
    <g id="bulb_5toilet" transform="matrix(0.0434451,0,0,0.04487424,-98.72426,401.66227)">
      <use xlink:href="global.svg#bulb_on" ng-if="(state.outputs.bulb_5toilet_mirror==true)&&(state.outputs.bulb_5toilet_center==true)"/>
      <use xlink:href="global.svg#bulb_left_on" ng-if="(state.outputs.bulb_5toilet_mirror==true)&&(state.outputs.bulb_5toilet_center==false)"/>
      <use xlink:href="global.svg#bulb_right_on" ng-if="(state.outputs.bulb_5toilet_mirror==false)&&(state.outputs.bulb_5toilet_center==true)"/>
      <use xlink:href="global.svg#bulb_off" ng-if="(state.outputs.bulb_5toilet_mirror==false)&&(state.outputs.bulb_5toilet_center==false)"/>
    </g>
    <g id="bulb_8corridor" transform="matrix(0.0434451,0,0,0.04487424,131.27574,395.66227)">
      <use xlink:href="global.svg#bulb_on" ng-if="state.outputs.bulb_8corridor==true" />
      <use xlink:href="global.svg#bulb_off" ng-if="state.outputs.bulb_8corridor==false" />
    </g>
    <g id="bulb_7corridor" transform="matrix(0.0434451,0,0,0.04487424,106.60262,354.78076)">
      <use xlink:href="global.svg#bulb_on" ng-if="state.outputs.bulb_7corridor==true" />
      <use xlink:href="global.svg#bulb_off" ng-if="state.outputs.bulb_7corridor==false" />
    </g>
    <g id="bulb_6corridor" transform="matrix(0.0434451,0,0,0.04487424,-40.286422,356.32346)">
      <use xlink:href="global.svg#bulb_on" ng-if="state.outputs.bulb_6corridor==true"/>
      <use xlink:href="global.svg#bulb_off" ng-if="state.outputs.bulb_6corridor==false"/>
    </g>
    <g id="bulb_5corridor" transform="matrix(0.0434451,0,0,0.04487424,-58.72426,395.66227)">
      <use xlink:href="global.svg#bulb_on" ng-if="state.outputs.bulb_5corridor==true"/>
      <use xlink:href="global.svg#bulb_off" ng-if="state.outputs.bulb_5corridor==false"/>
    </g>
    <g id="bulb_1stairs_right" transform="matrix(0.0434451,0,0,0.04487424,89.27574,391.66227)">
      <use xlink:href="global.svg#bulb_on" ng-if="(state.outputs.bulb_1stairs_right_main==true)&&(state.outputs.bulb_1stairs_right_small==true)" />
      <use xlink:href="global.svg#bulb_off" ng-if="(state.outputs.bulb_1stairs_right_main==false)&&(state.outputs.bulb_1stairs_right_small==false)"/>
      <use xlink:href="global.svg#bulb_medium" ng-if="(state.outputs.bulb_1stairs_right_main==true)&&(state.outputs.bulb_1stairs_right_small==false)"/>
      <use xlink:href="global.svg#bulb_low" ng-if="(state.outputs.bulb_1stairs_right_main==false)&&(state.outputs.bulb_1stairs_right_small==true)"/>
    </g>
    <g id="bulb_1stairs_left" transform="matrix(0.0434451,0,0,0.04487424,-20.72426,391.66227)">
      <use xlink:href="global.svg#bulb_on" ng-if="(state.outputs.bulb_1stairs_left_main==true)&&(state.outputs.bulb_1stairs_left_small==true)" />
      <use xlink:href="global.svg#bulb_off" ng-if="(state.outputs.bulb_1stairs_left_main==false)&&(state.outputs.bulb_1stairs_left_small==false)" />
      <use xlink:href="global.svg#bulb_medium" ng-if="(state.outputs.bulb_1stairs_left_main==true)&&(state.outputs.bulb_1stairs_left_small==false)" />
      <use xlink:href="global.svg#bulb_low" ng-if="(state.outputs.bulb_1stairs_left_main==false)&&(state.outputs.bulb_1stairs_left_small==true)" />
    </g>
    <g id="motion_8room" transform="matrix(0.25275859,0,0,-0.26066797,89.379801,437.45321)">
      <use xlink:href="global.svg#motion" ng-if="state.inputs.motion_8room==true" />
    </g>
    <g id="motion_5room" transform="matrix(0.25275859,0,0,-0.26066797,-10.63709,437.45321)">
      <use xlink:href="global.svg#motion" ng-if="state.inputs.motion_5room==true" />
    </g>
    <g id="motion_5kitchen" transform="matrix(0.25275859,0,0,-0.26066797,-90.689995,450.13421)">
      <use xlink:href="global.svg#motion" ng-if="state.inputs.motion_5kitchen==true" />
    </g>
    <g id="motion_8kitchen" transform="matrix(0.25275859,0,0,-0.26066797,169.46228,451.40231)">
      <use xlink:href="global.svg#motion" ng-if="state.inputs.motion_8kitchen==true" />
    </g>
    <g id="motion_8corridor" transform="matrix(0.25275859,0,0,-0.26066797,149.4962,400.67831)">
      <use xlink:href="global.svg#motion" ng-if="state.inputs.motion_8corridor==true" />
    </g>
    <g id="motion_5corridor" transform="matrix(0.25275859,0,0,-0.26066797,-70.655887,400.67831)">
      <use xlink:href="global.svg#motion" ng-if="state.inputs.motion_5corridor==true" />
    </g>
    <g id="motion_7corridor" transform="matrix(0.25275859,0,0,0.26066797,125.38917,375.31891)">
      <use xlink:href="global.svg#motion" ng-if="state.inputs.motion_7corridor==true" />
    </g>
    <g id="motion_7room" transform="matrix(0.25275859,0,0,0.26066797,159.18475,333.47161)">
      <use xlink:href="global.svg#motion" ng-if="state.inputs.motion_7room==true" />
    </g>
    <g id="motion_7kitchen" transform="matrix(0.25275859,0,0,0.26066797,90.418882,333.47161)">
      <use xlink:href="global.svg#motion" ng-if="state.inputs.motion_6kitchen==true" />
    </g>
    <g id="motion_6corridor" transform="matrix(0.25275859,0,0,0.26066797,-48.423129,376.58701)">
      <use xlink:href="global.svg#motion" ng-if="state.inputs.motion_6corridor==true" />
    </g>
    <g id="motion_6room" transform="matrix(0.25275859,0,0,0.26066797,-88.482121,333.47161)">
      <use xlink:href="global.svg#motion" ng-if="state.inputs.motion_6room==true" />
    </g>
    <g id="motion_6kitchen" transform="matrix(0.25275859,0,0,0.26066797,-16.606578,333.47161)">
      <use xlink:href="global.svg#motion" ng-if="state.inputs.motion_6kitchen==true" />
    </g>
    <g id="motion_1stairs_left" transform="matrix(0.25275859,0,0,0.26066797,2.8024979,404.48521)">
      <use xlink:href="global.svg#motion" ng-if="state.inputs.motion_1stairs_left==true&&state.states.motion_1stairs_off==false" />
      <use xlink:href="global.svg#motion_off" ng-if="state.states.motion_1stairs_off==true"  />
    </g>
    <g id="motion_1stairs_right" transform="matrix(0.25275859,0,0,0.26066797,74.802498,404.48521)">
      <use xlink:href="global.svg#motion" ng-if="state.inputs.motion_1stairs_right==true&&state.states.motion_1stairs_off==false" />
      <use xlink:href="global.svg#motion_off" ng-if="state.states.motion_1stairs_off==true"  />
    </g>
    <g id="hand_1stairs" transform="matrix(0.01195821,0,0,0.01167749,25.09779,404.12645)">
      <use xlink:href="global.svg#hand" height="300%" width="300%" ng-if="state.inputs.switch_2stairs==false"/>
    </g>
  </g>

</svg>
