<svg xmlns:svg="http://www.w3.org/2000/svg" xmlns="http://www.w3.org/2000/svg" xmlns:xlink="http://www.w3.org/1999/xlink" viewBox="0 0 500 500" background="#f6f6f6" version="1.1">
  <metadata id="metadata3338"/>
  <style type="text/css" id="style3340">
    #walls path {
        opacity: 1;
        fill: #212625;
        fill-opacity: 1;
        fill-rule: nonzero;
        stroke: #000000;
        stroke-width: 0.35266665px;
        stroke-linecap: round;
        stroke-linejoin: miter;
        stroke-miterlimit: 4;
        stroke-dasharray: none;
        stroke-opacity: 1
    }

    #rooms path {
        opacity: 1;
        fill: #999999;
        fill-opacity: 1;
        stroke: #000000;
    }

    #rooms path:hover {
        opacity: 0.5;
    }

    #rooms rect {
        fill: #cccccc;
        opacity: 0;
    }

    #windows path {
        opacity: 1;
        fill: #cccccc;
        fill-opacity: 1;
        stroke: #000000;
        stroke-width: 0.05256524;
        stroke-miterlimit: 4;
        stroke-dasharray: none;
        stroke-opacity: 1
    }
  </style>
  <defs id="defs3342">
    <symbol id="bulb_off">
      <path d="m308.6 427.36c0 7.8-5.76 14.11-12.89 14.11l-77.31 0c-7.12 0-12.89-6.31-12.89-14.11 0-7.8 5.76-14.11 12.89-14.11l77.31 0c7.12 0 12.89 6.31 12.89 14.11zm-12.89 28.21-77.31 0c-7.12 0-12.89 6.31-12.89 14.11 0 7.8 5.76 14.11 12.89 14.11 0 15.59 11.53 28.21 25.77 28.21l25.77 0c14.25 0 25.77-12.62 25.77-28.21 7.12 0 12.89-6.31 12.89-14.11 0-7.8-5.76-14.11-12.89-14.11zM257.06 88.81c56.85 0 103.08 50.64 103.08 112.85 0 40.23-19.3 76.54-51.62 97.12l-12.81 8.16 0 16.23 0 47.78-77.31 0 0-47.78 0-16.2-12.81-8.18c-32.34-20.61-51.62-56.92-51.62-97.12 0-62.21 46.26-112.85 103.08-112.85m0-28.21c-71.17 0-128.86 63.15-128.86 141.06 0 52.07 26.07 97.04 64.43 121.5l0 47.77c0 15.59 11.53 28.21 25.77 28.21l77.31 0c14.22 0 25.77-12.62 25.77-28.21l0-47.78c38.35-24.44 64.43-69.43 64.43-121.5 0-77.92-57.68-141.06-128.86-141.06l0 0z"/>
    </symbol>
    <symbol id="bulb_on">
      <path d="M256 64c-70.69 0-128 57.31-128 128 0 64 64 129 64 192h128c0-65 64-128 64-192C384 121.31 326.69 64 256 64zM323.59 272.91c-12.75 25.34-25.78 51.34-31.94 79.09h-71.47c-6.16-26.91-18.91-52.5-31.37-77.5C174 244.72 160 216.59 160 192c0-52.94 43.06-96 96-96s96 43.06 96 96C352 216.31 338.19 243.81 323.59 272.91zM320 464c0 8.84-7.16 16-16 16h-2.94c-6.59 18.63-24.19 32-45.06 32s-38.47-13.37-45.06-32H208c-8.84 0-16-7.16-16-16s7.16-16 16-16h96C312.84 448 320 455.16 320 464zM320 416c0 8.84-7.16 16-16 16h-96c-8.84 0-16-7.16-16-16s7.16-16 16-16h96C312.84 400 320 407.16 320 416zM97.72 82.13l28.81 16.66c-6.25 8.66-11.66 17.84-16.09 27.66l-28.72-16.56L97.72 82.13zM256 32c-5.5 0-10.66 1.06-16 1.63V0h32v33.63C266.66 33.06 261.5 32 256 32zM162.78 62.53l-16.66-28.81 27.75-16 16.56 28.72C180.63 50.88 171.44 56.28 162.78 62.53zM401.59 126.44c-4.44-9.81-9.87-19-16.12-27.66l28.81-16.66 16 27.75L401.59 126.44zM349.22 62.5c-8.62-6.22-17.84-11.62-27.62-16.06l16.56-28.72 27.69 16L349.22 62.5zM97.69 208H64v-32h33.63C97.06 181.34 96 186.5 96 192 96 197.44 97.06 202.69 97.69 208zM448 176v32h-33.69c0.63-5.31 1.69-10.56 1.69-16 0-5.5-1.06-10.66-1.62-16H448zM401.22 257.38l29.06 16.75-16 27.72-26.19-15.12C392.81 277.06 397.19 267.31 401.22 257.38zM110.66 257.44c3.97 9.94 8.34 19.75 13.03 29.44l-25.97 14.97-16-27.72L110.66 257.44z"/>
    </symbol>
    <symbol id="bulb_right_on">
      <path d="m256 64c-70.69 0-128 57.31-128 128 0 64 64 129 64 192l128 0C320 319 384 256 384 192 384 121.31 326.69 64 256 64Zm67.59 208.91C310.84 298.25 297.81 324.25 291.66 352l-71.47 0C214.03 325.09 201.28 299.5 188.81 274.5 174 244.72 160 216.59 160 192c0-52.94 43.06-96 96-96 52.94 0 96 43.06 96 96 0 24.31-13.81 51.81-28.41 80.91zM320 464c0 8.84-7.16 16-16 16l-2.94 0c-6.59 18.63-24.19 32-45.06 32-20.87 0-38.47-13.37-45.06-32L208 480c-8.84 0-16-7.16-16-16 0-8.84 7.16-16 16-16l96 0c8.84 0 16 7.16 16 16zm0-48c0 8.84-7.16 16-16 16l-96 0c-8.84 0-16-7.16-16-16 0-8.84 7.16-16 16-16l48.36 0L304 400c8.84 0 16 7.16 16 16zM256 32c-5.5 0-10.66 1.06-16 1.63L240 0l32 0 0 33.63C266.66 33.06 261.5 32 256 32Zm145.59 94.44c-4.44-9.81-9.87-19-16.12-27.66l28.81-16.66 16 27.75zM349.22 62.5C340.59 56.28 331.38 50.88 321.59 46.44l16.56-28.72 27.69 16zM448 176l0 32-33.69 0c0.63-5.31 1.69-10.56 1.69-16 0-5.5-1.06-10.66-1.62-16zm-46.78 81.38 29.06 16.75-16 27.72-26.19-15.12c4.72-9.66 9.09-19.41 13.13-29.34z" />
    </symbol>
    <symbol id="bulb_left_on">
      <path d="m256 64c-70.69 0-128 57.31-128 128 0 64 64 129 64 192l128 0C320 319 384 256 384 192 384 121.31 326.69 64 256 64Zm67.59 208.91C310.84 298.25 297.81 324.25 291.66 352l-71.47 0C214.03 325.09 201.28 299.5 188.81 274.5 174 244.72 160 216.59 160 192c0-52.94 43.06-96 96-96 52.94 0 96 43.06 96 96 0 24.31-13.81 51.81-28.41 80.91zM320 464c0 8.84-7.16 16-16 16l-2.94 0c-6.59 18.63-24.19 32-45.06 32-20.87 0-38.47-13.37-45.06-32L208 480c-8.84 0-16-7.16-16-16 0-8.84 7.16-16 16-16l96 0c8.84 0 16 7.16 16 16zm0-48c0 8.84-7.16 16-16 16l-96 0c-8.84 0-16-7.16-16-16 0-8.84 7.16-16 16-16l96 0c8.84 0 16 7.16 16 16zM97.72 82.13 126.53 98.78c-6.25 8.66-11.66 17.84-16.09 27.66L81.72 109.87ZM256 32c-5.5 0-10.66 1.06-16 1.63L240 0l32 0 0 33.63C266.66 33.06 261.5 32 256 32Zm-93.22 30.53-16.66-28.81 27.75-16 16.56 28.72c-9.81 4.44-19 9.84-27.66 16.09zM97.69 208 64 208l0-32 33.63 0C97.06 181.34 96 186.5 96 192c0 5.44 1.06 10.69 1.69 16zm12.97 49.44c3.97 9.94 8.34 19.75 13.03 29.44l-25.97 14.97-16-27.72z"/>
    </symbol>
    <symbol id="bulb_medium">
      <path d="m256 64c-70.69 0-128 57.31-128 128 0 64 64 129 64 192l128 0C320 319 384 256 384 192 384 121.31 326.69 64 256 64Zm67.59 208.91C310.84 298.25 297.81 324.25 291.66 352l-71.47 0C214.03 325.09 201.28 299.5 188.81 274.5 174 244.72 160 216.59 160 192c0-52.94 43.06-96 96-96 52.94 0 96 43.06 96 96 0 24.31-13.81 51.81-28.41 80.91zM320 464c0 8.84-7.16 16-16 16l-2.94 0c-6.59 18.63-24.19 32-45.06 32-20.87 0-38.47-13.37-45.06-32L208 480c-8.84 0-16-7.16-16-16 0-8.84 7.16-16 16-16l96 0c8.84 0 16 7.16 16 16zm0-48c0 8.84-7.16 16-16 16l-96 0c-8.84 0-16-7.16-16-16 0-8.84 7.16-16 16-16l96 0c8.84 0 16 7.16 16 16zM97.72 82.13 126.53 98.78c-6.25 8.66-11.66 17.84-16.09 27.66L81.72 109.87ZM256 32c-5.5 0-10.66 1.06-16 1.63L240 0l32 0 0 33.63C266.66 33.06 261.5 32 256 32Zm-93.22 30.53-16.66-28.81 27.75-16 16.56 28.72c-9.81 4.44-19 9.84-27.66 16.09zm238.81 63.91c-4.44-9.81-9.87-19-16.12-27.66l28.81-16.66 16 27.75zM349.22 62.5C340.59 56.28 331.38 50.88 321.59 46.44l16.56-28.72 27.69 16z"/>
    </symbol>
    <symbol id="bulb_low">
      <path d="m256 64c-70.69 0-128 57.31-128 128 0 64 64 129 64 192l128 0C320 319 384 256 384 192 384 121.31 326.69 64 256 64Zm67.59 208.91C310.84 298.25 297.81 324.25 291.66 352l-71.47 0C214.03 325.09 201.28 299.5 188.81 274.5 174 244.72 160 216.59 160 192c0-52.94 43.06-96 96-96 52.94 0 96 43.06 96 96 0 24.31-13.81 51.81-28.41 80.91zM320 464c0 8.84-7.16 16-16 16l-2.94 0c-6.59 18.63-24.19 32-45.06 32-20.87 0-38.47-13.37-45.06-32L208 480c-8.84 0-16-7.16-16-16 0-8.84 7.16-16 16-16l96 0c8.84 0 16 7.16 16 16zm0-48c0 8.84-7.16 16-16 16l-96 0c-8.84 0-16-7.16-16-16 0-8.84 7.16-16 16-16l96 0c8.84 0 16 7.16 16 16zM256 32c-5.5 0-10.66 1.06-16 1.63L240 0l32 0 0 33.63C266.66 33.06 261.5 32 256 32Zm-93.22 30.53-16.66-28.81 27.75-16 16.56 28.72c-9.81 4.44-19 9.84-27.66 16.09zM349.22 62.5C340.59 56.28 331.38 50.88 321.59 46.44l16.56-28.72 27.69 16z"/>
    </symbol>
    <symbol id="key">
      <path clip-rule="evenodd" d="M56.63 379.2c-14.09 14.07-14.09 36.98 0 51.06 14.08 14.09 36.98 14.09 50.97 0l10.18-10.08 42.44 42.43c7.26 7.27 18.89 7.27 26.16 0l63.24-63.24c7.27-7.25 7.27-18.89 0-26.16l-42.43-42.43 75.59-75.68c16.17 8.36 34.61 13.08 54.06 13.08 65.23 0 118.11-52.87 118.11-118.11 0-65.23-52.88-118.11-118.11-118.11-65.24 0-118.11 52.88-118.11 118.11 0 19.45 4.72 37.89 13.08 54.06L56.63 379.2zM291.4 150.06c0-25.07 20.35-45.43 45.43-45.43 25.08 0 45.43 20.35 45.43 45.43s-20.35 45.43-45.43 45.43C311.75 195.49 291.4 175.13 291.4 150.06z" fill="#010101" fill-rule="evenodd"/>
    </symbol>
    <symbol id="key_opening">
      <path d="m82.78 183.9c-16.31-0.01-29.58 15.65-29.58 34.92 0 19.27 13.26 34.93 29.53 34.86l11.74 0.07 0.01 58.05c-0.01 9.93 6.73 17.89 15.15 17.89l73.28 0c8.41 0.01 15.15-7.95 15.15-17.89l0-58.04 87.63-0.07c4.53 16.78 12.48 32.61 23.74 45.92 37.79 44.62 99.05 44.62 136.85 0 37.79-44.62 37.79-116.95 0-161.57-37.79-44.62-99.06-44.62-136.85 0-11.27 13.3-19.21 29.14-23.74 45.92l-202.9-0.06zm268.75 3.85c14.53-17.15 38.11-17.15 52.63 0 14.53 17.15 14.52 44.99 0 62.14-14.53 17.15-38.11 17.15-52.63 0-14.52-17.15-14.53-44.99 0-62.14zM93.04 13.06l2.57 158.33-37-7.17 11.92-52.33"/>
      <path d="m93.04 13.06 2.57 158.33-37-7.17 11.92-52.33C64.33 85.94 56.06 69.03 47.21 67.31 29.5 63.88 16.14 122.53 17.37 198.32c1.23 75.79 16.58 140 34.29 143.44 11.38 2.21 20.96-21.23 26.04-58.37L89.06 330.97C81.33 378.71 68.14 408.08 52.68 405.09 26.8 400.07 4.36 306.21 2.57 195.45 0.77 84.69 20.3-1.04 46.18 3.98 59.12 6.49 71.2 31.21 80.27 69.14L93.04 13.06Z"/>
    </symbol>
    <symbol id="motion_off">
         <g transform="matrix(0.3473152,0,0,0.4783876,-74.451554,-188.20021)">
            <path d="M222.09269 449.99998C234.75171 428.07392 258.14653 414.5669 283.46457 414.5669 308.7826 414.5669 332.17743 428.07391 344.83645 449.99997" style="fill:none;stroke-linecap:round;stroke-linejoin:round;stroke-width:12.5;stroke:#000"  />
            <path d="M237.43566 458.85824C246.92992 442.41369 264.47604 432.28343 283.46457 432.28343 302.4531 432.28343 319.99922 442.41369 329.49348 458.85824" style="fill:none;stroke-linecap:round;stroke-linejoin:round;stroke-opacity:0.78431373;stroke-width:9.375;stroke:#000"  />
            <path d="M252.77863 467.71651C259.10814 456.75348 270.80555 449.99997 283.46457 449.99997 296.12359 449.99997 307.821 456.75348 314.15051 467.71651" style="fill:none;stroke-linecap:round;stroke-linejoin:round;stroke-opacity:0.58823529;stroke-width:6.25;stroke:#000"  />
            <path d="M268.1216 476.57478C271.28635 471.09326 277.13506 467.71651 283.46457 467.71651 289.79408 467.71651 295.64279 471.09326 298.80754 476.57478" style="fill:none;stroke-opacity:0.35333336;stroke-width:3.125;stroke:#000"  />
            <path style="stroke:#000000;stroke-width:9.81314326;stroke-miterlimit:4;" d="M 214.72366,483.55456 362.97809,411.39022"/>
            <path style="stroke:#000000;stroke-width:9.81314326;stroke-miterlimit:4;" d="M 350.48982,485.03275 222.34298,416.29868" />
         </g>
    </symbol>
    <symbol id="motion">
      <g transform="matrix(0.3473152,0,0,0.4783876,-74.451554,-188.20021)" id="g3354">
        <path d="M222.09 450C234.75 428.07 258.15 414.57 283.46 414.57 308.78 414.57 332.18 428.07 344.84 450" style="fill:none;stroke-linecap:round;stroke-linejoin:round;stroke-width:12.5;stroke:#000"/>
        <path d="M237.44 458.86C246.93 442.41 264.48 432.28 283.46 432.28 302.45 432.28 320 442.41 329.49 458.86" style="fill:none;stroke-linecap:round;stroke-linejoin:round;stroke-opacity:0.78;stroke-width:9.38;stroke:#000"/>
        <path d="M252.78 467.72C259.11 456.75 270.81 450 283.46 450 296.12 450 307.82 456.75 314.15 467.72" style="fill:none;stroke-linecap:round;stroke-linejoin:round;stroke-opacity:0.59;stroke-width:6.25;stroke:#000"/>
        <path d="M268.12 476.57C271.29 471.09 277.14 467.72 283.46 467.72 289.79 467.72 295.64 471.09 298.81 476.57" style="fill:none;stroke-opacity:0.35;stroke-width:3.13;stroke:#000"/>
      </g>
    </symbol>
    <symbol id="doors">
      <path d="M76.94 0l20.75 426.73 30.73-1.49L109.24 30.76h284.11l-2.97 58.47-9.05 0 2.65-52.07-255.16 70.2 20.49 395.3 214.29-79.59 3.21-48.49h9.07l-2.57 50.62 30.73 1.56L425.72 0H76.94zM169.3 308.83c-5.92 0-10.72-6.04-10.72-13.5 0-7.45 4.8-13.5 10.72-13.5 5.92 0 10.72 6.05 10.72 13.5C180.02 302.78 175.22 308.83 169.3 308.83zM368.84 324.62l9.94-185.44 9.06 0-9.43 185.44L368.84 324.62z"/>
    </symbol>
  </defs>
  <g id="walls" transform="matrix(1.5986498,0,0,1.5771648,176.84094,-386.03043)">
    <path d="m-18.57 386.87 0-0.79 8.08 0 8.08 0 0 0.79 0 0.79-8.08 0-8.08 0 0-0.79zm-53.62 38.71 0-0.85 0.53 0 0.53 0 0 0.85 0 0.85-0.53 0-0.53 0 0-0.85M-72.19 425.58l0-0.85 0.53 0 0.53 0 0 0.85 0 0.85-0.53 0-0.53 0 0-0.85"/>
    <path d="m-72.19 425.58 0-0.85 0.53 0 0.53 0 0 0.85 0 0.85-0.53 0-0.53 0 0-0.85z"/>
    <path d="m71.83 529.88-24.93 0c-4.13 0-24.73-0.03-24.82-0.24l-1.9 0c-1.03-1.08-0.37-4.35-0.32-7.55-0.08-6.41-2.03-4.3 22.67-4.5 1.19-0.21-0.36 2.53-0.36-43.36 0-39.82-0.81-33.81-0.54-45.62-1.05-1.29-0.75-1.21-1.05-1.29-0.26-0.07-73.61-0.27-73.7-0.45-0.12-0.22 0.94 0 0.93-2.54 8.59 0.64 6.19-2.04 6.19-2.04-0.1-14.65 5.02-11.04 5.3-4.58L111.5 417.5l0-1.52c0-1.99 0.16-2.56 0.74-2.68 0.44-0.09 0.94-0.48 1.08-0.86 0.11-0.31 1.12 0.71 1.32 1.35 0.11 0.34 0.19 2.42 0.23 5.82l0.06 5.3 0.99 0c0.54 0 1.23 0.07 1.53 0.15 0.7 0.19 0.85 0.55 0.32 0.75-0.86 0.33-7.27 0.43-27.57 0.43l-40.42 0.08-0.42 89.23c-1.68 3.4 21.08-0.34 22.63 2.42M144.22 516.98l-8.29 0" id="path3389" style="fill-rule:nonzero;fill:#212625;stroke-linecap:round;stroke-miterlimit:4;stroke-width:0.35;stroke:#000"/>
    <path d="m179.63 523.49 0-6.08 7.74 0 7.74 0-0.39-22.88c-0.21-12.59-0.5-23.06-0.63-23.28-0.13-0.22-1.53-0.4-3.12-0.4l-2.88 0-0.07-1.72c-0.04-0.95-0.22-8.03-0.4-15.74l-0.33-14.02-11.2-0.14-11.2-0.14-0.17-7c-0.2-8.23-0.05-9.91 0.94-9.91 0.59 0 0.73 1.52 0.73 7.94l0 7.94 12.67 0 12.67 0-0.25-18.92c-0.14-10.4-0.39-21.59-0.55-24.87l-0.3-5.95-12.12 0-12.12 0 0 9.26c0 7.88-0.12 9.26-0.79 9.26-0.68 0-0.79-1.38-0.79-9.26l0-9.26-10.85 0c-10.49 0-10.85 0.03-10.85 1.06 0 1.03-0.35 1.06-12.96 1.06-8.29 0-12.96 0.19-12.96 0.53 0 0.29-0.55 0.53-1.22 0.53-0.67 0-1.47 0.26-1.79 0.57-1.09 1.09-2.81-0.6-2.81-2.77 0-1.07-0.24-2.03-0.54-2.13-0.32-0.11-0.4-0.89-0.2-1.9 0.34-1.68 0.4-1.72 3.19-1.72l2.84 0 0 2.91 0 2.91 12.96 0 12.96 0 0-1.59c0-1.46 0.15-1.59 1.85-1.59l1.85 0 0-4.23c0-2.47 0.22-4.23 0.53-4.23 0.31 0 0.53 1.76 0.53 4.23l0 4.23 23.04 0 23.04 0-0.36-11.51c-0.2-6.33-0.51-14.01-0.69-17.06l-0.33-5.56-12.43 0-12.43 0-0.17 1.46-0.17 1.46-9.75 0-9.75 0 0 3.7c0 2.12-0.23 3.7-0.53 3.7-0.3 0-0.53-1.59-0.53-3.7 0-3.35-0.1-3.7-1.06-3.7-0.93 0-1.06-0.35-1.06-2.91l0-2.91-4.23 0c-2.44 0-4.23-0.22-4.23-0.52 0-0.34 9.38-0.57 26.32-0.66l26.32-0.14-0.2-9.09-0.2-9.09 2.05-0.17 2.05-0.17-0.2-26.46c-0.11-14.55-0.3-26.63-0.43-26.85-0.12-0.22-6.28-0.4-13.69-0.4l-13.46 0 0-6.35 0-6.35 16.28 0 16.28 0 2 131.88c1.1 72.53 1.99 132.53 1.97 133.33l-0.02 1.46-10.58 0-10.58 0 0-6.08zM-0.79 388.88" id="path3395"/>
    <path d="m-0.79 388.88c0-0.85-0.3-1.64-0.66-1.76-0.87-0.29 0.78-1.99 1.94-1.99 0.74 0 0.83-2.01 0.83-18.25l0-18.25-1.59 0c-0.87 0-1.59-0.24-1.59-0.53 0-0.29 0.68-0.53 1.51-0.53l1.51 0 0.31-7.54c0.32-7.72 1.02-11.4 3.25-16.91 2.69-6.67 7.72-13.19 13.75-17.84 2.68-2.07 2.95-2.46 2.95-4.33l0-2.05 7.41 0 7.41 0 0-22.22 0-22.22-7.67 0-7.67 0 0-4.5 0-4.5 15.34 0 15.34 0 0 5.82 0 5.82-3.44 0-3.44 0 0 20.9 0 20.9 7.94 0 7.94 0 0 1.82c0 1.7 0.21 1.92 3.31 3.45 7.74 3.81 14.35 10.29 18.32 17.97 3.19 6.14 4.27 10.09 4.9 17.77 0.31 3.78 0.77 7.29 1.04 7.8 0.26 0.51 0.48 9.26 0.48 19.44l0 18.53 1.32 0c0.82 0 1.32 0.3 1.32 0.79 0 0.44-0.24 0.79-0.53 0.79-0.29 0-0.53 0.71-0.53 1.59l0 1.59-5.03 0-5.03 0-0.01-25c-0.01-28.27-0.38-32.91-3.19-39.55-4.86-11.51-15.64-19.8-27.71-21.29-16.1-2-31.1 6.54-37.3 21.25-2.81 6.66-3.22 11.69-3.22 39.82l0 24.78-4.76 0-4.76 0 0-1.54z" id="path3397"/>
    <path d="m107.8 311.72-0.13-36.11 5.95 0.11 5.95 0.11-5.68 0.17-5.68 0.17-0.14 35.83-0.14 35.83-0.13-36.11z"/>
    <path d="m-109.78 522.04c0-5.2 4.11-271.41 4.22-273.28 0-0.07 7.75-0.13 17.2-0.13l17.2 0 0 4.23 0 4.23-14.49 0-14.49 0-0.33 13.89c-0.18 7.64-0.48 22.52-0.66 33.07l-0.33 19.18 3.28 0 3.28 0-0.38 12.17-0.38 12.17 25.48 0c15.97 0 25.48 0.19 25.48 0.51 0 0.28-2.2 0.58-4.89 0.66l-4.89 0.15-0.15 4.89c-0.08 2.69-0.38 4.89-0.66 4.89-0.28 0-0.51-0.71-0.51-1.59l0-1.59-8.73 0-8.73 0 0-3.44 0-3.44-12.35 0-12.35 0-0.35 14.37c-0.19 7.9-0.35 16.59-0.35 19.31l0 4.94 21.43 0 21.43 0 0-7.67c0-4.64 0.2-7.67 0.52-7.67 0.31 0 0.57 3.82 0.66 9.66l0.14 9.66 14.42 0.14 14.42 0.14 0-3.18 0-3.18 2.42 0c1.55 0 2.73 0.32 3.3 0.88 0.64 0.64 0.7 0.94 0.23 1.1-0.45 0.15-0.66 1.54-0.66 4.41 0 3.78-0.1 4.19-1.01 4.19-0.56 0-1.15 0.3-1.32 0.66-0.25 0.53-0.37 0.53-0.62 0-0.17-0.36-0.76-0.66-1.32-0.66-0.73 0-1.01-0.37-1.01-1.32l0-1.32-15.08 0-15.08 0 0-2.38 0-2.38-8.73 0-8.73 0 0 4.23c0 2.47-0.22 4.23-0.53 4.23-0.29 0-0.53-0.95-0.53-2.12 0-1.53-0.22-2.12-0.79-2.12-0.57 0-0.79-0.59-0.79-2.12l0-2.12-12.12 0-12.12 0-0.3 5.42c-0.17 2.98-0.4 13.82-0.52 24.07l-0.21 18.65 13.43 0 13.43 0 0-12.96c0-8.29 0.19-12.96 0.53-12.96 0.34 0 0.53 4.94 0.53 13.76l0 13.76-11.56 0-11.56 0-0.34 4.05c-0.19 2.23-0.34 6.75-0.34 10.05l0 6-3.44 0-3.44 0 0 9.39c0 5.17-0.16 18.5-0.35 29.63l-0.35 20.24 8.82 0 8.82 0 0 6.08 0 6.08-11.38 0-11.38 0 0.01-7.54z" id="path3403"/>
    <path d="m-56.35 523.49 0-6.08 2.12 0 2.12 0 0-45.5c0-40.09-0.09-45.5-0.79-45.5-0.44 0-0.79-0.36-0.79-0.79 0-0.59 0.62-0.79 2.38-0.79 1.76 0 2.38 0.21 2.38 0.79 0 0.44-0.47 0.79-1.06 0.79-1.05 0-1.06 0.35-1.06 45.5l0 45.5 1.85 0 1.85 0 0 6.08 0 6.08-4.5 0-4.5 0 0-6.08z"/>
    <path d="m136.25 523.49 0-6.08 4.23 0 4.23 0 0-45.5 0-45.5-3.44 0c-2.7 0-3.44-0.17-3.44-0.79 0-0.64 0.85-0.79 4.5-0.79 3.64 0 4.5 0.15 4.5 0.79 0 0.44-0.24 0.79-0.53 0.79-0.35 0-0.53 15.52-0.53 45.5l0 45.5 1.59 0 1.59 0 0 6.08 0 6.08-6.35 0-6.35 0 0-6.08z"/>
    <path d="m101.85 523.49 0-6.08 1.85 0 1.85 0 0 6.08 0 6.08-1.85 0-1.85 0 0-6.08z"/>
    <path d="m-27.25 348.06c0-0.29 0.71-0.53 1.59-0.53l1.59 0 0-45.24 0-45.24-8.2 0-8.2 0 0-4.23 0-4.23 3.7 0 3.7 0 0-1.59 0-1.59 11.64 0 11.64 0 0.01 2.51c0 1.38 0.15 3.41 0.33 4.5l0.33 1.98-6.95 0-6.95 0 0 46.56 0 46.56 1.85 0c1.02 0 1.85 0.24 1.85 0.53 0 0.31-1.68 0.53-3.97 0.53-2.29 0-3.97-0.22-3.97-0.53z"/>
    <path d="m105.03 348.59c0-0.29 0.24-0.53 0.53-0.53 0.35 0 0.53-12.61 0.53-36.77 0-24.16-0.18-36.77-0.53-36.77-0.33 0-0.53-3.26-0.53-8.73l0-8.73-11.72 0-11.72 0 0.34-3.57c0.19-1.96 0.34-4.58 0.34-5.82l0-2.25 15.61 0 15.61 0 0 8.73 0 8.73 2.91 0 2.91 0 0 6.42 0 6.42-5.83-0.28c-3.21-0.15-5.94-0.09-6.08 0.14-0.14 0.23-0.1 16.63 0.09 36.44l0.35 36.03 5.2 0c3.12 0 5.2 0.21 5.2 0.53 0 0.32-2.56 0.53-6.61 0.53-4.06 0-6.61-0.2-6.61-0.53z"/>
    <path d="m-16.66 523.46 0-6.08 3.17 0 3.17 0 0 6.08 0 6.08-3.17 0-3.17 0 0-6.08z"/>
  </g>
  <g id="rooms" transform="matrix(1.5986498,0,0,1.5771648,176.84094,-386.03043)">
    <path id="flat6_room" short-press='negate({topic:"Mieszkanie6",name:"bulb_6room_left"})' long-press='negate({topic:"Mieszkanie6",name:"bulb_6room_right"})' d="m -95.400139,334.64026 0,-12.16379 -3.115654,0 -3.115667,0 0.002,-6.51123 c 0.002,-9.07948 0.52999,-45.36972 0.76161,-52.3655 l 0.19154,-5.78528 38.394158,-0.0156 38.394162,-0.0156 0,44.51036 0,44.51036 -35.755857,0 -35.755857,0 0,-12.16384 z" />
    <path id="flat6_kitchen" short-press='negate({topic:"Mieszkanie6",name:"bulb_6kitchen_center"})' long-press='negate({topic:"Mieszkanie6",name:"bulb_6kitchen_desk"})' d="m -21.9,301 0,-45.5 28.6,0 28.6,0 0,21.4 0,21.4 -7.1,0 -7.1,0 0,2.1 c 0,1.9 -0.2,2.3 -2.3,3.7 -4.9,3.4 -10.6,10 -13.5,15.7 -0.6,1.2 -1.7,4.1 -2.5,6.6 -1.2,3.8 -1.5,5.7 -1.7,12.3 l -0.3,7.8 -11.3,0 -11.3,0 0,-45.5 z" />
    <path id="flat6_toilet" short-press='negate({topic:"Mieszkanie6",name:"bulb_6toilet_center"})' long-press='negate({topic:"Mieszkanie6",name:"bulb_6toilet_mirror"})' d="m-97.62 369.56c0-9.13 0.15-17.34 0.33-18.25l0.33-1.65 11.28 0 11.28 0 0.16 3.31 0.16 3.31 8.83 0.14 8.83 0.14 0.04 14.8 0.04 14.8-20.65 0-20.65 0 0-16.6z"/>
    <path id="flat6_corridor" short-press='negate({topic:"Mieszkanie6",name:"bulb_6corridor"})' d="m-53.7 370.02 0-20.37 27.25 0 27.25 0 0 17.46c0 17.11-0.02 17.46-1.06 17.46-0.58 0-1.06 0.24-1.06 0.53 0 0.33-3.35 0.53-8.99 0.53-5.64 0-8.99-0.2-8.99-0.53 0-0.3-1.59-0.53-3.7-0.53l-3.7 0 0 2.91 0 2.91-13.49 0-13.49 0 0-20.37z"/>
    <path id="flat5_corridor" short-press='negate({topic:"Mieszkanie5",name:"bulb_5corridor"})' d="m-72.22 406.79 0-17.46 7.94 0 7.94 0 0 2.38 0 2.38 14.81 0 14.81 0 0 1.32c0 0.97 0.28 1.32 1.06 1.32 1 0 1.06 0.35 1.06 6.88 0 6.53-0.05 6.88-1.06 6.88-1 0-1.06 0.35-1.06 6.88l0 6.88-22.75 0-22.75 0 0-17.46z"/>
    <path id="flat5_toilet" short-press='negate({topic:"Mieszkanie5",name:"bulb_5toilet_center"})' long-press='negate({topic:"Mieszkanie5",name:"bulb_5toilet_mirror"})' d="m-100.08 419.4c0.19-8.78 0.35-19.13 0.35-23.02l0-7.06 11.38 0 11.38 0 0 2.12c0 1.53 0.22 2.12 0.79 2.12 0.69 0 0.79 2.67 0.79 20.9l0 20.9-12.52 0-12.52 0 0.35-15.96z"/>
    <path id="flat5_kitchen" short-press='negate({topic:"Mieszkanie5",name:"bulb_5kitchen_center"})' long-press="negate({topic:"Mieszkanie5",name:"bulb_5kitchen_desk"})" d="m-103.58 502.16c0.06-7.78 0.27-20.64 0.46-28.57l0.34-14.42 3.05 0 3.05 0 0.33-1.98c0.18-1.09 0.33-5.73 0.33-10.32l0.01-8.33 11.9 0 11.9 0 0-5.82 0-5.82 9.52 0 9.52 0 0 44.71 0 44.71-25.26 0-25.26 0 0.12-14.15z"/>
    <path id="flat5_room" short-press='negate({topic:"Mieszkanie5",name:"bulb_5room_left"})' long-press='negate({topic:"Mieszkanie5",name:"bulb_5room_right"})' d="m-50.4 471.74 0.14-44.58 35.32-0.14 57.39 0.25-0.38 45.1 0.76 44.71-57.9-0.77-35.45 0 0.14-44.58z"/>
    <path id="flat8_room" short-press='negate({topic:"Mieszkanie8",name:"bulb_8room_left"})' long-press='negate({topic:"Mieszkanie8",name:"bulb_8room_right"})' d="m49.81 470.46 0-43.18L106.62 426.9l37.04 0 0 44.71 0 44.71-37.04 0-56.62 0.19z"/>
    <path id="flat8_kitchen" short-press='negate({topic:"Mieszkanie8",name:"bulb_8kitchen_center"})' long-press='negate({topic:"Mieszkanie8",name:"bulb_8kitchen_desk"})' d="m 146.83,471.61 0,-44.71 8.73,0 8.73,0 0,6.61 0,6.61 11.03,0 11.03,0 0.35,7.23 c 0.19,3.97 0.35,11 0.35,15.61 l 0,8.38 3.11,0 3.11,0 0.33,13.62 c 0.18,7.49 0.47,17.61 0.65,22.49 l 0.32,8.86 -23.87,0 -23.87,0 0,-44.71 z" />
    <path id="flat8_toilet" short-press='negate({topic:"Mieszkanie8",name:"bulb_8toilet_center"})' long-press='negate({topic:"Mieszkanie8",name:"bulb_8toilet_mirror"})' d="m166.93 412.88 0-24.07 11.64 0 11.64 0 0 6.53c0 3.59 0.16 14.42 0.35 24.07l0.35 17.55-11.99 0-11.99 0 0-24.07z"/>
    <path id="flat8_corridor" ng-click='negate({topic:"Mieszkanie8",name:"bulb_8corridor"})' d="m116.14 418.43c0-3.53-0.21-5.82-0.53-5.82-0.33 0-0.53-3.7-0.53-10.05l0-10.05 1.59 0c0.87 0 1.59-0.24 1.59-0.53 0-0.34 4.67-0.53 12.96-0.53l12.96 0 0-1.32 0-1.32 10.05 0 10.05 0 0 17.72 0 17.72-24.07 0-24.07 0 0-5.82z"/>
    <path id="flat7_toilet" short-press='negate({topic:"Mieszkanie7",name:"bulb_7toilet_center"})' long-press='negate({topic:"Mieszkanie7",name:"bulb_7toilet_mirror"})' d="m148.42 370.81 0-14.81 9.79 0 9.79 0 0-1.59 0-1.59 11.6 0c10.6 0 11.63 0.08 11.87 0.93 0.14 0.51 0.43 7.89 0.63 16.4l0.37 15.48-22.02 0-22.02 0 0-14.81z"/>
    <path id="flat7_corridor" ng-click='negate({topic:"Mieszkanie7",name:"bulb_7corridor"})' d="m117.73 385.63 0-2.65-3.7 0c-3.35 0-3.7 0.1-3.7 1.06 0 1.02-0.35 1.06-10.32 1.06l-10.32 0 0-17.46 0-17.46 26.72 0 26.72 0 0 2.7c0 2.25 0.17 2.74 1.06 2.97 1.03 0.27 1.06 0.72 1.06 15.03l0 14.75-1.85 0c-1.62 0-1.85 0.16-1.85 1.32l0 1.32-11.9 0-11.9 0 0-2.65z"/>
    <path id="flat7_room" short-press='negate({topic:"Mieszkanie7",name:"bulb_7room_left"})' long-press='negate({topic:"Mieszkanie7",name:"bulb_7room_right"})' d="m108.37 312c0.19-19.25 0.49-35.14 0.66-35.32 0.17-0.17 18.59-0.39 40.93-0.48l40.61-0.16 0.35 15.5c0.19 8.53 0.35 20.31 0.35 26.19l0 10.68-1.93 0.16-1.93 0.16 0.11 9.13 0.11 9.13-39.8 0-39.8 0 0.34-35 0 0z"/>
    <path id="flat7_kitchen" short-press='negate({topic:"Mieszkanie7",name:"bulb_7kitchen_center"})' long-press='negate({topic:"Mieszkanie7",name:"bulb_7kitchen_desk"})' d="m88.1 342.22c0-16.67-9.28-31.76-23.94-38.92-2.79-1.36-3.04-1.63-3.04-3.23l0-1.74-7.67 0-7.67 0 0-20.11 0-20.11 29.37 0 29.37 0 0 8.47c0 5.29 0.2 8.47 0.53 8.47 0.35 0 0.53 12.35 0.53 35.98l0 35.98-8.73 0-8.73 0 0-4.78z"/>
    <path d="m 86.565192,417.44655 25.490288,0 0,-2.16353 c 0,-1.55646 0.22684,-2.15708 0.81662,-2.15708 0.69348,0 0.81662,-1.49833 0.81662,-10.23641 0,-8.73807 -0.11666,-10.2364 -0.81662,-10.2364 -0.60274,0 -0.81662,-0.63291 -0.81662,-2.42185 l 0,-2.42832 -10.14296,0 -10.142986,0 0,1.88582 0,1.88581 -6.027442,0 -6.02745,0 -0.01296,-26.80839 c -0.01296,-19.37489 -0.220363,-28.08068 -0.738847,-31.39379 -2.74152,-17.47616 -17.86847,-29.4563 -34.434234,-29.79212 l 0,0 c -4.640483,-0.0969 -9.391148,0.72332 -14.012192,2.58977 -11.666031,4.7081 -19.974837,15.03491 -21.8802872,27.20235 -0.5314515,3.31311 -0.725887,12.0189 -0.7388467,31.39379 l -0.01296,26.80839 -5.7617292,0 -5.7617211,0 0,-1.62102 0,-1.62104 -9.3133728,0 -9.313382,0 0,4.30769 c 0,3.95247 -0.09074,4.30768 -1.10179,4.30768 -1.043464,0 -1.095311,0.3552 -1.095311,7.00725 0,6.65205 0.05832,7.00726 1.095311,7.00726 0.972169,0 1.10179,0.3552 1.10179,3.22915 l 0,3.22915 c 45.666018,0.25834 92.213472,-0.13563 108.831082,0.0194 m 26.268018,-19.16177 c 0.0324,0.0129 0.0713,0.0645 0.11018,0.155 0.15555,0.36812 0.15555,0.9752 0,1.34332 -0.15555,0.37458 -0.27868,0.071 -0.27868,-0.67166 0,-0.55541 0.0713,-0.86541 0.1685,-0.82666 z"/>
    <rect id="staircase_1right" short-press='negate({topic:"firstfloor",name:"bulb_1stairs_right_main"})' long-press='negate({topic:"firstfloor",name:"bulb_1stairs_right_small"})' width="63.49" height="26.46" x="47.18" y="388.94" />
    <rect id="staircase_1left" short-press='negate({topic:"firstfloor",name:"bulb_1stairs_left_main"})' long-press='negate({topic:"firstfloor",name:"bulb_1stairs_left_small"})' width="63.49" height="26.46" x="-18.42" y="388.41"/>
  </g>
  <g id="windows" transform="matrix(1.5986498,0,0,1.5771648,176.84094,-386.03043)">
    <path d="m-86.5 523.46 0-6.08 14.55 0 14.55 0 0 6.08 0 6.08-14.55 0-14.55 0 0-6.08zm40.21 0 0-6.08 14.55 0 14.55 0 0 6.08 0 6.08-14.55 0-14.55 0 0-6.08M-46.29 523.46l0-6.08 14.55 0 14.55 0 0 6.08 0 6.08-14.55 0-14.55 0 0-6.08"/>
    <path d="m-46.29 523.46 0-6.08 14.55 0 14.55 0 0 6.08 0 6.08-14.55 0-14.55 0 0-6.08z"/>
    <path d="m-9.79 523.46 0-6.08 14.55 0 14.55 0 0 6.08 0 6.08-14.55 0-14.55 0 0-6.08z"/>
    <path d="m72.23 523.46 0-6.08 14.29 0 14.29 0 0 6.08 0 6.08-14.29 0-14.29 0 0-6.08z"/>
    <path d="m106.62 523.73 0-6.36 14.57 0 14.57 0-0.15 6.22-0.15 6.22-14.42 0.14-14.42 0.14 0-6.36z"/>
    <path d="m150 523.72 0-6.35 14.29 0 14.29 0 0 6.35 0 6.35-14.29 0-14.29 0 0-6.35z"/>
    <path d="m119.84 269.23 0-6.35 21.96 0 21.96 0 0 6.35 0 6.35-21.96 0-21.96 0 0-6.35z"/>
    <path d="m52.12 251.24 0-5.82 14.55 0 14.55 0 0 5.82 0 5.82-14.55 0-14.55 0 0-5.82z"/>
    <path d="m-8.73 249.91 0-4.5 14.55 0 14.55 0 0 4.5 0 4.5-14.55 0-14.55 0 0-4.5z"/>
    <path d="m-70.1 252.82 0-4.23 14.29 0 14.29 0 0 4.23 0 4.23-14.29 0-14.29 0 0-4.23z"/>
    <path d="m88.01 426.57c10.34-0.04 27.27-0.04 37.61 0 10.34 0.04 1.88 0.08-18.81 0.08-20.69 0-29.15-0.04-18.81-0.08z"/>
    <path d="m119.17 425.59 0-0.79 9.13 0 9.13 0 0 0.79 0 0.79-9.13 0-9.13 0 0-0.79zm28.39 0 0-0.79 8.08 0 8.08 0 0 0.79 0 0.79-8.08 0-8.08 0 0-0.79"/>
    <path d="m147.56 425.59 0-0.79 8.08 0 8.08 0 0 0.79 0 0.79-8.08 0-8.08 0 0-0.79z"/>
    <path d="m164.91 414.48 0-7.03 0.79 0 0.79 0 0 7.03 0 7.03-0.79 0-0.79 0 0-7.03z"/>
    <path d="m91.84 386.43 0-0.79 8.87 0 8.87 0 0 0.79 0 0.79-8.87 0-8.87 0 0-0.79z"/>
    <path d="m112.87 402.59 0-9.07 0.79 0 0.79 0 0 9.07 0 9.07-0.79 0-0.79 0 0-9.07z"/>
    <path d="m146.11 369.84 0-7.1 0.79 0 0.79 0 0 7.1 0 7.1-0.79 0-0.79 0 0-7.1z"/>
    <path d="m118.91 348.49 0-0.85 8.15 0 8.15 0 0 0.85 0 0.85-8.15 0-8.15 0 0-0.85z"/>
    <path d="m89.34 348.49 0-0.85 7.56 0 7.56 0 0 0.85 0 0.85-7.56 0-7.56 0 0-0.85z"/>
    <path d="m-18.63 348.02 0-0.85 8.15 0 8.15 0 0 0.85 0 0.85-8.15 0-8.15 0 0-0.85z"/>
    <path d="m-44.25 348.02 0-0.85 8.15 0 8.15 0 0 0.85 0 0.85-8.15 0-8.15 0 0-0.85z"/>
    <path d="m-55.95 365.17 0-6.05 0.79 0 0.79 0 0 6.05 0 6.05-0.79 0-0.79 0 0-6.04z"/>
    <path d="m-74.55 403.56 0-6.05 0.79 0 0.79 0 0 6.05 0 6.05-0.79 0-0.79 0 0-6.04z"/>
    <path d="m-70.61 425.57 0-0.85 8.15 0 8.15 0 0 0.85 0 0.85-8.15 0-8.15 0 0-0.85z"/>
    <path d="m-48.14 425.57 0-0.85 8.15 0 8.15 0 0 0.85 0 0.85-8.15 0-8.15 0 0-0.85z"/>
    <path d="m-23.83 403.56 0-6.05 0.79 0 0.79 0 0 6.05-0.12 7.79c-0.58 0.04-1.03 0.05-1.61-0.03L-23.83 403.57Z" style="fill:#ccc;stroke-miterlimit:4;stroke-width:0.05;stroke:#000"/>
  </g>
  <g id="bulbs" transform="matrix(1.5986498,0,0,1.5771648,176.84094,-386.03043)">
    <g id="bulb_8room" transform="matrix(0.0434451,0,0,0.04487424,83.275737,459.66227)">
      <use xlink:href="#bulb_on" ng-if="(state.outputs.bulb_8room_left==true)&&(state.outputs.bulb_8room_right==true)" />
      <use xlink:href="#bulb_right_on" ng-if="(state.outputs.bulb_8room_left==false)&&(state.outputs.bulb_8room_right==true)" />
      <use xlink:href="#bulb_left_on" ng-if="(state.outputs.bulb_8room_left==true)&&(state.outputs.bulb_8room_right==false)" />
      <use xlink:href="#bulb_off" ng-if="(state.outputs.bulb_8room_left==false)&&(state.outputs.bulb_8room_right==false)" />
    </g>
    <g id="bulb_6room" transform="matrix(0.0434451,0,0,0.04487424,-72.11893,284.66447)">
      <use xlink:href="#bulb_on" ng-if="(state.outputs.bulb_6room_left==true)&&(state.outputs.bulb_6room_right==true)" />
      <use xlink:href="#bulb_right_on" ng-if="(state.outputs.bulb_6room_left==false)&&(state.outputs.bulb_6room_right==true)" />
      <use xlink:href="#bulb_left_on" ng-if="(state.outputs.bulb_6room_left==true)&&(state.outputs.bulb_6room_right==false)" />
      <use xlink:href="#bulb_off" ng-if="(state.outputs.bulb_6room_left==false)&&(state.outputs.bulb_6room_right==false)" />
    </g>
    <g id="bulb_7room" transform="matrix(0.0434451,0,0,0.04487424,137.25857,296.23471)">
      <use xlink:href="#bulb_on" ng-if="(state.outputs.bulb_7room_left==true)&&(state.outputs.bulb_7room_right==true)" />
      <use xlink:href="#bulb_right_on" ng-if="(state.outputs.bulb_7room_left==false)&&(state.outputs.bulb_7room_right==true)" />
      <use xlink:href="#bulb_left_on" ng-if="(state.outputs.bulb_7room_left==true)&&(state.outputs.bulb_7room_right==false)" />
      <use xlink:href="#bulb_off" ng-if="(state.outputs.bulb_7room_left==false)&&(state.outputs.bulb_7room_right==false)" />
    </g>
    <g id="bulb_5room" transform="matrix(0.0434451,0,0,0.04487424,-14.724263,459.66227)">
      <use xlink:href="#bulb_on" ng-if="(state.outputs.bulb_5room_left==true)&&(state.outputs.bulb_5room_right==true)" />
      <use xlink:href="#bulb_right_on" ng-if="(state.outputs.bulb_5room_left==false)&&(state.outputs.bulb_5room_right==true)" />
      <use xlink:href="#bulb_left_on" ng-if="(state.outputs.bulb_5room_left==true)&&(state.outputs.bulb_5room_right==false)" />
      <use xlink:href="#bulb_off" ng-if="(state.outputs.bulb_5room_left==false)&&(state.outputs.bulb_5room_right==false)" />
    </g>
    <g id="bulb_8kitchen" transform="matrix(0.0434451,0,0,0.04487424,157.27574,459.66227)">
      <use xlink:href="#bulb_on" ng-if="(state.outputs.bulb_8kitchen_desk==true)&&(state.outputs.bulb_8kitchen_center==true)" />
      <use xlink:href="#bulb_right_on" ng-if="(state.outputs.bulb_8kitchen_desk==true)&&(state.outputs.bulb_8kitchen_center==false)" />
      <use xlink:href="#bulb_left_on" ng-if="(state.outputs.bulb_8kitchen_desk==false)&&(state.outputs.bulb_8kitchen_center==true)" />
      <use xlink:href="#bulb_off" ng-if="(state.outputs.bulb_8kitchen_desk==false)&&(state.outputs.bulb_8kitchen_center==false)" />
    </g>
    <g id="bulb_5kitchen" transform="matrix(0.0434451,0,0,0.04487424,-90.724263,459.66227)">
      <use xlink:href="#bulb_on" ng-if="(state.outputs.bulb_5kitchen_desk==true)&&(state.outputs.bulb_5kitchen_center==true)" />
      <use xlink:href="#bulb_left_on" ng-if="(state.outputs.bulb_5kitchen_desk==true)&&(state.outputs.bulb_5kitchen_center==false)" />
      <use xlink:href="#bulb_right_on" ng-if="(state.outputs.bulb_5kitchen_desk==false)&&(state.outputs.bulb_5kitchen_center==true)" />
      <use xlink:href="#bulb_off" ng-if="(state.outputs.bulb_5kitchen_desk==false)&&(state.outputs.bulb_5kitchen_center==false)" />
    </g>
    <g id="bulb_6kitchen" transform="matrix(0.0434451,0,0,0.04487424,-11.113697,276.4668)">
      <use xlink:href="#bulb_on" ng-if="(state.outputs.bulb_6kitchen_desk==true)&&(state.outputs.bulb_6kitchen_center==true)" />
      <use xlink:href="#bulb_right_on" ng-if="(state.outputs.bulb_6kitchen_desk==true)&&(state.outputs.bulb_6kitchen_center==false)" />
      <use xlink:href="#bulb_left_on" ng-if="(state.outputs.bulb_6kitchen_desk==false)&&(state.outputs.bulb_6kitchen_center==true)" />
      <use xlink:href="#bulb_off" ng-if="(state.outputs.bulb_6kitchen_desk==false)&&(state.outputs.bulb_6kitchen_center==false)" />
    </g>
    <g id="bulb_7kitchen" transform="matrix(0.0434451,0,0,0.04487424,68.682274,276.85247)">
      <use xlink:href="#bulb_on" ng-if="(state.outputs.bulb_7kitchen_desk==true)&&(state.outputs.bulb_7kitchen_center==true)" />
      <use xlink:href="#bulb_left_on" ng-if="(state.outputs.bulb_7kitchen_desk==true)&&(state.outputs.bulb_7kitchen_center==false)" />
      <use xlink:href="#bulb_right_on" ng-if="(state.outputs.bulb_7kitchen_desk==false)&&(state.outputs.bulb_7kitchen_center==true)" />
      <use xlink:href="#bulb_off" ng-if="(state.outputs.bulb_7kitchen_desk==false)&&(state.outputs.bulb_7kitchen_center==false)" />
    </g>
    <g id="bulb_8toilet" transform="matrix(0.0434451,0,0,0.04487424,167.27574,401.66227)">
      <use xlink:href="#bulb_on" ng-if="(state.outputs.bulb_8toilet_mirror==true)&&(state.outputs.bulb_8toilet_center==true)" />
      <use xlink:href="#bulb_right_on" ng-if="(state.outputs.bulb_8toilet_mirror==true)&&(state.outputs.bulb_8toilet_center==false)" />
      <use xlink:href="#bulb_left_on" ng-if="(state.outputs.bulb_8toilet_mirror==false)&&(state.outputs.bulb_8toilet_center==true)" />
      <use xlink:href="#bulb_off" ng-if="(state.outputs.bulb_8toilet_mirror==false)&&(state.outputs.bulb_8toilet_center==false)" />
    </g>
    <g id="bulb_7toilet" transform="matrix(0.0434451,0,0,0.04487424,159.23702,358.08103)">
      <use xlink:href="#bulb_on" ng-if="(state.outputs.bulb_7toilet_mirror==true)&&(state.outputs.bulb_7toilet_center==true)"/>
      <use xlink:href="#bulb_right_on" ng-if="(state.outputs.bulb_7toilet_mirror==true)&&(state.outputs.bulb_7toilet_center==false)"/>
      <use xlink:href="#bulb_left_on" ng-if="(state.outputs.bulb_7toilet_mirror==false)&&(state.outputs.bulb_7toilet_center==true)"/>
      <use xlink:href="#bulb_off" ng-if="(state.outputs.bulb_7toilet_mirror==false)&&(state.outputs.bulb_7toilet_center==false)"/>
    </g>
    <g id="bulb_6toilet" transform="matrix(0.0434451,0,0,0.04487424,-87.101757,358.46671)">
      <use xlink:href="#bulb_on" ng-if="(state.outputs.bulb_6toilet_mirror==true)&&(state.outputs.bulb_6toilet_center==true)"/>
      <use xlink:href="#bulb_left_on" ng-if="(state.outputs.bulb_6toilet_mirror==true)&&(state.outputs.bulb_6toilet_center==false)"/>
      <use xlink:href="#bulb_right_on" ng-if="(state.outputs.bulb_6toilet_mirror==false)&&(state.outputs.bulb_6toilet_center==true)"/>
      <use xlink:href="#bulb_off" ng-if="(state.outputs.bulb_6toilet_mirror==false)&&(state.outputs.bulb_6toilet_center==false)"/>
    </g>
    <g id="bulb_5toilet" transform="matrix(0.0434451,0,0,0.04487424,-98.72426,401.66227)">
      <use xlink:href="#bulb_on" ng-if="(state.outputs.bulb_5toilet_mirror==true)&&(state.outputs.bulb_5toilet_center==true)"/>
      <use xlink:href="#bulb_left_on" ng-if="(state.outputs.bulb_5toilet_mirror==true)&&(state.outputs.bulb_5toilet_center==false)"/>
      <use xlink:href="#bulb_right_on" ng-if="(state.outputs.bulb_5toilet_mirror==false)&&(state.outputs.bulb_5toilet_center==true)"/>
      <use xlink:href="#bulb_off" ng-if="(state.outputs.bulb_5toilet_mirror==false)&&(state.outputs.bulb_5toilet_center==false)"/>
    </g>
    <g id="bulb_8corridor" transform="matrix(0.0434451,0,0,0.04487424,131.27574,395.66227)">
      <use xlink:href="#bulb_on" ng-if="state.outputs.bulb_8corridor==true" />
      <use xlink:href="#bulb_off" ng-if="state.outputs.bulb_8corridor==false" />
    </g>
    <g id="bulb_7corridor" transform="matrix(0.0434451,0,0,0.04487424,106.60262,354.78076)">
      <use xlink:href="#bulb_on" ng-if="state.outputs.bulb_7corridor==true" />
      <use xlink:href="#bulb_off" ng-if="state.outputs.bulb_7corridor==false" />
    </g>
    <g id="bulb_6corridor" transform="matrix(0.0434451,0,0,0.04487424,-40.286422,356.32346)">
      <use xlink:href="#bulb_on" ng-if="state.outputs.bulb_6corridor==true"/>
      <use xlink:href="#bulb_off" ng-if="state.outputs.bulb_6corridor==false"/>
    </g>
    <g id="bulb_5corridor" transform="matrix(0.0434451,0,0,0.04487424,-58.72426,395.66227)">
      <use xlink:href="#bulb_on" ng-if="state.outputs.bulb_5corridor==true"/>
      <use xlink:href="#bulb_off" ng-if="state.outputs.bulb_5corridor==false"/>
    </g>
    <g id="bulb_1stairs_right" transform="matrix(0.0434451,0,0,0.04487424,89.27574,391.66227)">
      <use xlink:href="#bulb_on" ng-if="(state.outputs.bulb_1stairs_right_main==true)&&(state.outputs.bulb_1stairs_right_small==true)" />
      <use xlink:href="#bulb_off" ng-if="(state.outputs.bulb_1stairs_right_main==false)&&(state.outputs.bulb_1stairs_right_small==false)"/>
      <use xlink:href="#bulb_medium" ng-if="(state.outputs.bulb_1stairs_right_main==true)&&(state.outputs.bulb_1stairs_right_small==false)"/>
      <use xlink:href="#bulb_low" ng-if="(state.outputs.bulb_1stairs_right_main==false)&&(state.outputs.bulb_1stairs_right_small==true)"/>
    </g>
    <g id="bulb_1stairs_left" transform="matrix(0.0434451,0,0,0.04487424,-20.72426,391.66227)">
      <use xlink:href="#bulb_on" ng-if="(state.outputs.bulb_1stairs_left_main==true)&&(state.outputs.bulb_1stairs_left_small==true)" />
      <use xlink:href="#bulb_off" ng-if="(state.outputs.bulb_1stairs_left_main==false)&&(state.outputs.bulb_1stairs_left_small==false)" />
      <use xlink:href="#bulb_medium" ng-if="(state.outputs.bulb_1stairs_left_main==true)&&(state.outputs.bulb_1stairs_left_small==false)" />
      <use xlink:href="#bulb_low" ng-if="(state.outputs.bulb_1stairs_left_main==false)&&(state.outputs.bulb_1stairs_left_small==true)" />
    </g>
    <g id="motion_8room" transform="matrix(0.25275859,0,0,-0.26066797,89.379801,437.45321)">
      <use xlink:href="#motion" ng-if="state.inputs.motion_8room==true" />
    </g>
    <g id="motion_5room" transform="matrix(0.25275859,0,0,-0.26066797,-10.63709,437.45321)">
      <use xlink:href="#motion" ng-if="state.inputs.motion_5room==true" />
    </g>
    <g id="motion_5kitchen" transform="matrix(0.25275859,0,0,-0.26066797,-90.689995,450.13421)">
      <use xlink:href="#motion" ng-if="state.inputs.motion_5kitchen==true" />
    </g>
    <g id="motion_8kitchen" transform="matrix(0.25275859,0,0,-0.26066797,169.46228,451.40231)">
      <use xlink:href="#motion" ng-if="state.inputs.motion_8kitchen==true" />
    </g>
    <g id="motion_8corridor" transform="matrix(0.25275859,0,0,-0.26066797,149.4962,400.67831)">
      <use xlink:href="#motion" ng-if="state.inputs.motion_8corridor==true" />
    </g>
    <g id="motion_5corridor" transform="matrix(0.25275859,0,0,-0.26066797,-70.655887,400.67831)">
      <use xlink:href="#motion" ng-if="state.inputs.motion_5corridor==true" />
    </g>
    <g id="motion_7corridor" transform="matrix(0.25275859,0,0,0.26066797,125.38917,375.31891)">
      <use xlink:href="#motion" ng-if="state.inputs.motion_7corridor==true" />
    </g>
    <g id="motion_7room" transform="matrix(0.25275859,0,0,0.26066797,159.18475,333.47161)">
      <use xlink:href="#motion" ng-if="state.inputs.motion_7room==true" />
    </g>
    <g id="motion_7kitchen" transform="matrix(0.25275859,0,0,0.26066797,90.418882,333.47161)">
      <use xlink:href="#motion" ng-if="state.inputs.motion_6kitchen==true" />
    </g>
    <g id="motion_6corridor" transform="matrix(0.25275859,0,0,0.26066797,-48.423129,376.58701)">
      <use xlink:href="#motion" ng-if="state.inputs.motion_6corridor==true" />
    </g>
    <g id="motion_6room" transform="matrix(0.25275859,0,0,0.26066797,-88.482121,333.47161)">
      <use xlink:href="#motion" ng-if="state.inputs.motion_6room==true" />
    </g>
    <g id="motion_6kitchen" transform="matrix(0.25275859,0,0,0.26066797,-16.606578,333.47161)">
      <use xlink:href="#motion" ng-if="state.inputs.motion_6kitchen==true" />
    </g>
    <g id="motion_1stairs_left" transform="matrix(0.25275859,0,0,0.26066797,2.8024979,404.48521)">
      <use xlink:href="#motion" ng-if="state.inputs.motion_1stairs_left==true&&state.states.motion_1off==false" />
      <use xlink:href="#motion_off" ng-if="state.states.motion_1off==true"  />
    </g>
    <g id="motion_1stairs_right" transform="matrix(0.25275859,0,0,0.26066797,74.802498,404.48521)">
      <use xlink:href="#motion" ng-if="state.inputs.motion_1stairs_right==true&&state.states.motion_1off==false" />
      <use xlink:href="#motion_off" ng-if="state.states.motion_1off==true"  />
    </g>
  </g>

</svg>
