{{state.outputs}}
<?xml version="1.0" encoding="UTF-8" standalone="no"?>
<svg
   xmlns:dc="http://purl.org/dc/elements/1.1/"
   xmlns:cc="http://creativecommons.org/ns#"
   xmlns:rdf="http://www.w3.org/1999/02/22-rdf-syntax-ns#"
   xmlns:svg="http://www.w3.org/2000/svg"
   xmlns="http://www.w3.org/2000/svg"
   xmlns:xlink="http://www.w3.org/1999/xlink"
   xmlns:sodipodi="http://sodipodi.sourceforge.net/DTD/sodipodi-0.dtd"
   xmlns:inkscape="http://www.inkscape.org/namespaces/inkscape"
   viewBox="0 0 500 500"
   background="#f6f6f6"
   version="1.1"
   id="svg3336"
   inkscape:version="0.91 r13725"
   sodipodi:docname="building.svg">
  <sodipodi:namedview
     pagecolor="#ffffff"
     bordercolor="#666666"
     borderopacity="1"
     objecttolerance="10"
     gridtolerance="10"
     guidetolerance="10"
     inkscape:pageopacity="0"
     inkscape:pageshadow="2"
     inkscape:window-width="1920"
     inkscape:window-height="1015"
     id="namedview3554"
     showgrid="false"
     inkscape:zoom="1.644"
     inkscape:cx="188.05752"
     inkscape:cy="248.03378"
     inkscape:window-x="-9"
     inkscape:window-y="-9"
     inkscape:window-maximized="1"
     inkscape:current-layer="svg3336" />
  <metadata
     id="metadata3338">
    <rdf:RDF>
      <cc:Work
         rdf:about="">
        <dc:format>image/svg+xml</dc:format>
        <dc:type
           rdf:resource="http://purl.org/dc/dcmitype/StillImage" />
      </cc:Work>
    </rdf:RDF>
  </metadata>
  <style
     type="text/css"
     id="style3340">

    #walls path {
        opacity: 1;
        fill: #212625;
        fill-opacity: 1;
        fill-rule: nonzero;
        stroke: #000000;
        stroke-width: 0.35266665px;
        stroke-linecap: round;
        stroke-linejoin: miter;
        stroke-miterlimit: 4;
        stroke-dasharray: none;
        stroke-opacity: 1
    }

    #rooms path {
        opacity: 1;
        fill: #999999;
        fill-opacity: 1;
        stroke: #000000;
    }

    #rooms path:hover {
        opacity: 0.5;
    }

    #rooms rect {
        fill: #cccccc;
        opacity: 0;
    }

    #windows path {
        opacity: 1;
        fill: #cccccc;
        fill-opacity: 1;
        stroke: #000000;
        stroke-width: 0.05256524;
        stroke-miterlimit: 4;
        stroke-dasharray: none;
        stroke-opacity: 1
    }

</style>
  <defs
     id="defs3342">
    <symbol
       id="bulb_off">
      <path
         d="m 308.6017,427.36123 c 0,7.79735 -5.76308,14.10646 -12.8856,14.10646 l -77.31356,0 c -7.12251,0 -12.88559,-6.30911 -12.88559,-14.10646 0,-7.79735 5.76308,-14.10647 12.88559,-14.10647 l 77.31356,0 c 7.12252,0 12.8856,6.30912 12.8856,14.10647 z m -12.8856,28.21292 -77.31356,0 c -7.12251,0 -12.88559,6.30912 -12.88559,14.10646 0,7.79736 5.76308,14.10647 12.88559,14.10647 0,15.59469 11.52697,28.21292 25.77118,28.21292 l 25.7712,0 c 14.24502,0 25.77118,-12.61911 25.77118,-28.21292 7.12252,0 12.8856,-6.30911 12.8856,-14.10647 0,-7.79734 -5.76308,-14.10646 -12.8856,-14.10646 z M 257.05932,88.806144 c 56.85285,0 103.08475,50.640436 103.08475,112.851696 0,40.22546 -19.30343,76.53902 -51.61807,97.11947 l -12.8099,8.15529 0,16.22772 0,47.77506 -77.31356,0 0,-47.77506 0,-16.20038 -12.80989,-8.18263 c -32.33961,-20.60867 -51.61807,-56.92134 -51.61807,-97.11947 0,-62.21126 46.25766,-112.851696 103.08474,-112.851696 m 0,-28.212924 c -71.17276,0 -128.85593,63.14846 -128.85593,141.06462 0,52.07312 26.07319,97.03747 64.42796,121.50337 l 0,47.77417 c 0,15.59469 11.52698,28.21292 25.77119,28.21292 l 77.31356,0 c 14.21925,0 25.77119,-12.61911 25.77119,-28.21292 l 0,-47.77506 c 38.35477,-24.43856 64.42796,-69.43024 64.42796,-121.50337 0,-77.91527 -57.68316,-141.06373 -128.85593,-141.06373 l 0,0 z"
         id="path3345" />
    </symbol>
    <symbol
       id="bulb_on">
      <path
         d="M256 64c-70.688 0-128 57.313-128 128 0 64 64 129 64 192h128c0-65 64-128 64-192C384 121.313 326.688 64 256 64zM323.594 272.906c-12.75 25.344-25.781 51.344-31.938 79.094h-71.469c-6.156-26.906-18.906-52.5-31.375-77.5C174 244.719 160 216.594 160 192c0-52.938 43.063-96 96-96s96 43.063 96 96C352 216.313 338.188 243.813 323.594 272.906zM320 464c0 8.844-7.156 16-16 16h-2.938c-6.594 18.625-24.188 32-45.063 32s-38.469-13.375-45.063-32H208c-8.844 0-16-7.156-16-16s7.156-16 16-16h96C312.844 448 320 455.156 320 464zM320 416c0 8.844-7.156 16-16 16h-96c-8.844 0-16-7.156-16-16s7.156-16 16-16h96C312.844 400 320 407.156 320 416zM97.719 82.125l28.813 16.656c-6.25 8.656-11.656 17.844-16.094 27.656l-28.719-16.563L97.719 82.125zM256 32c-5.5 0-10.656 1.063-16 1.625V0h32v33.625C266.656 33.063 261.5 32 256 32zM162.781 62.531l-16.656-28.813 27.75-16 16.563 28.719C180.625 50.875 171.438 56.281 162.781 62.531zM401.594 126.438c-4.438-9.813-9.875-19-16.125-27.656l28.813-16.656 16 27.75L401.594 126.438zM349.219 62.5c-8.625-6.219-17.844-11.625-27.625-16.063l16.563-28.719 27.688 16L349.219 62.5zM97.688 208H64v-32h33.625C97.063 181.344 96 186.5 96 192 96 197.438 97.063 202.688 97.688 208zM448 176v32h-33.688c0.625-5.313 1.688-10.563 1.688-16 0-5.5-1.063-10.656-1.625-16H448zM401.219 257.375l29.063 16.75-16 27.719-26.188-15.125C392.813 277.063 397.188 267.313 401.219 257.375zM110.656 257.438c3.969 9.938 8.344 19.75 13.031 29.438l-25.969 14.969-16-27.719L110.656 257.438z"
         id="path3348" />
    </symbol>
    <symbol
       id="key">
      <path
         clip-rule="evenodd"
         d="M56.629 379.2c-14.09 14.071-14.09 36.975 0 51.055 14.08 14.087 36.981 14.087 50.965 0l10.177-10.08 42.438 42.428c7.257 7.268 18.888 7.268 26.155 0l63.244-63.244c7.268-7.255 7.268-18.89 0-26.157l-42.429-42.427 75.586-75.682c16.174 8.357 34.61 13.075 54.059 13.075 65.234 0 118.111-52.869 118.111-118.109 0-65.232-52.877-118.111-118.111-118.111-65.238 0-118.11 52.879-118.11 118.111 0 19.449 4.721 37.886 13.077 54.06L56.629 379.2zM291.396 150.059c0-25.075 20.354-45.429 45.427-45.429 25.076 0 45.426 20.354 45.426 45.429s-20.35 45.426-45.426 45.426C311.751 195.485 291.396 175.133 291.396 150.059z"
         fill="#010101"
         fill-rule="evenodd"
         id="path3351" />
    </symbol>
    <symbol
       id="motion">
      <g
         transform="matrix(0.3473152,0,0,0.4783876,-74.451554,-188.20021)"
         id="g3354">
        <path
           d="M222.09269 449.99998C234.75171 428.07392 258.14653 414.5669 283.46457 414.5669 308.7826 414.5669 332.17743 428.07391 344.83645 449.99997"
           style="fill:none;stroke-linecap:round;stroke-linejoin:round;stroke-width:12.5;stroke:#000"
           id="path3356" />
        <path
           d="M237.43566 458.85824C246.92992 442.41369 264.47604 432.28343 283.46457 432.28343 302.4531 432.28343 319.99922 442.41369 329.49348 458.85824"
           style="fill:none;stroke-linecap:round;stroke-linejoin:round;stroke-opacity:0.78431373;stroke-width:9.375;stroke:#000"
           id="path3358" />
        <path
           d="M252.77863 467.71651C259.10814 456.75348 270.80555 449.99997 283.46457 449.99997 296.12359 449.99997 307.821 456.75348 314.15051 467.71651"
           style="fill:none;stroke-linecap:round;stroke-linejoin:round;stroke-opacity:0.58823529;stroke-width:6.25;stroke:#000"
           id="path3360" />
        <path
           d="M268.1216 476.57478C271.28635 471.09326 277.13506 467.71651 283.46457 467.71651 289.79408 467.71651 295.64279 471.09326 298.80754 476.57478"
           style="fill:none;stroke-opacity:0.35333336;stroke-width:3.125;stroke:#000"
           id="path3362" />
      </g>
    </symbol>
    <symbol
       id="doors">
      <path
         d="M76.945 0l20.75 426.728 30.726-1.492L109.239 30.762h284.112l-2.973 58.468-9.053-0.002 2.65-52.072-255.164 70.203 20.489 395.301 214.285-79.586 3.213-48.492h9.072l-2.574 50.619 30.726 1.562L425.715 0H76.945zM169.295 308.826c-5.922 0-10.723-6.045-10.723-13.504 0-7.455 4.801-13.5 10.723-13.5 5.922 0 10.723 6.045 10.723 13.5C180.018 302.781 175.217 308.826 169.295 308.826zM368.844 324.623l9.939-185.441 9.057 0.002-9.428 185.441L368.844 324.623z"
         id="path3365" />
    </symbol>
  </defs>
  <g
     id="walls"
     transform="matrix(1.5986498,0,0,1.5771648,176.84094,-386.03043)">
    <path
       d="m -18.57,386.87 0,-0.79 8.08,0 8.08,0 0,0.79 0,0.79 -8.08,0 -8.08,0 0,-0.79 z m -53.62,38.71 0,-0.85 0.53,0 0.53,0 0,0.85 0,0.85 -0.53,0 -0.53,0 0,-0.85"
       id="path3368"
       inkscape:connector-curvature="0"
       style="opacity:1;fill:#212625;fill-opacity:1;fill-rule:nonzero;stroke:#000000;stroke-width:0.35266665px;stroke-linecap:round;stroke-linejoin:miter;stroke-miterlimit:4;stroke-dasharray:none;stroke-opacity:1" />
    <path
       d="m -72.19,425.58 0,-0.85 0.53,0 0.53,0 0,0.85 0,0.85 -0.53,0 -0.53,0 0,-0.85 z"
       id="path3370"
       inkscape:connector-curvature="0"
       style="opacity:1;fill:#212625;fill-opacity:1;fill-rule:nonzero;stroke:#000000;stroke-width:0.35266665px;stroke-linecap:round;stroke-linejoin:miter;stroke-miterlimit:4;stroke-dasharray:none;stroke-opacity:1" />
    <path
       d="m 63.13,501.42 c 0,-7.82 0.02,-11 0.04,-7.06 0.02,3.94 0.02,10.34 0,14.22 -0.02,3.88 -0.04,0.66 -0.04,-7.16 z"
       id="path3372"
       inkscape:connector-curvature="0"
       style="opacity:1;fill:#212625;fill-opacity:1;fill-rule:nonzero;stroke:#000000;stroke-width:0.35266665px;stroke-linecap:round;stroke-linejoin:miter;stroke-miterlimit:4;stroke-dasharray:none;stroke-opacity:1" />
    <path
       d="m 61.77,529.26 c -0.05,-0.13 -0.05,-2.87 0,-6.07 0.1,-6.39 0.12,-6.59 0.92,-6.72 1.19,-0.21 1.17,0.56 1.17,-45.33 0,-39.82 -0.05,-43.84 -0.54,-44.85 -0.12,-0.24 -0.37,-0.44 -0.67,-0.52 -0.26,-0.07 -0.56,-0.27 -0.65,-0.45 -0.12,-0.22 -0.18,-1.49 -0.19,-4.03 l -0.01,-3.71 24.85,-0.04 24.85,-0.04 0,-1.52 c 0,-1.99 0.16,-2.56 0.74,-2.68 0.44,-0.09 0.94,-0.48 1.08,-0.86 0.11,-0.31 1.12,0.71 1.32,1.35 0.11,0.34 0.19,2.42 0.23,5.82 l 0.06,5.3 0.99,0 c 0.54,0 1.23,0.07 1.53,0.15 0.7,0.19 0.85,0.55 0.32,0.75 -0.86,0.33 -7.27,0.43 -27.57,0.43 l -21.23,0 0.06,44.41 c 0.06,44.29 0.08,46.07 0.54,46.63 0.09,0.1 0.35,0.23 0.59,0.27 0.79,0.16 0.81,0.29 0.87,6.36 l 0.06,5.59 -4.61,0 c -4.13,0 -4.62,-0.03 -4.71,-0.24 z"
       id="path3374"
       inkscape:connector-curvature="0"
       style="opacity:1;fill:#212625;fill-opacity:1;fill-rule:nonzero;stroke:#000000;stroke-width:0.35266665px;stroke-linecap:round;stroke-linejoin:miter;stroke-miterlimit:4;stroke-dasharray:none;stroke-opacity:1" />
    <path
       d="m 144.22,516.98 c -2.76,0 -5.53,0 -8.29,0 m -29.84,0 c -1.59,0 -3.17,0 -4.76,0 m 4.76,0 c 9.95,0 19.9,0 29.84,0 m -34.61,0 c -9.93,0 -19.85,0 -29.78,0 m 47.37,-90.37 c -16.55,0 -33.11,0 -49.66,0 m 0,0 c 0,30.12 0,60.25 0,90.37 m 2.29,0 c -0.76,0 -1.53,0 -2.29,0 m 74.96,0 c 0,-30.12 0,-60.25 0,-90.37 m 0,0 c -2.19,0 -4.38,0 -6.57,0 m -18.74,0 c 6.25,0 12.49,0 18.74,0"
       id="path3376"
       inkscape:connector-curvature="0"
       style="opacity:1;fill:#212625;fill-opacity:1;fill-rule:nonzero;stroke:#000000;stroke-width:0.35266665px;stroke-linecap:round;stroke-linejoin:miter;stroke-miterlimit:4;stroke-dasharray:none;stroke-opacity:1" />
    <path
       d="m 61.64,522.97 c 0,-6.26 0.06,-6.61 1.06,-6.61 1.05,0 1.06,-0.35 1.06,-45.24 0,-44.89 -0.01,-45.24 -1.06,-45.24 -0.97,0 -1.06,-0.35 -1.06,-4.23 l 0,-4.23 24.87,0 24.87,0 0,-2.12 c 0,-1.47 0.23,-2.12 0.75,-2.12 0.41,0 0.85,-0.3 0.97,-0.66 0.16,-0.48 0.46,-0.42 1.1,0.23 0.71,0.71 0.88,1.96 0.88,6.48 l 0,5.59 1.59,0 c 1.06,0 1.59,0.26 1.59,0.79 0,0.69 -3.09,0.79 -24.6,0.79 l -24.6,0 0,45.5 c 0,45.15 0.01,45.5 1.06,45.5 1,0 1.06,0.35 1.06,6.08 l 0,6.08 -4.76,0 -4.76,0 0,-6.61 z"
       id="path3378"
       inkscape:connector-curvature="0"
       style="opacity:1;fill:#212625;fill-opacity:1;fill-rule:nonzero;stroke:#000000;stroke-width:0.35266665px;stroke-linecap:round;stroke-linejoin:miter;stroke-miterlimit:4;stroke-dasharray:none;stroke-opacity:1" />
    <path
       d="m 179.63,523.49 0,-6.08 7.74,0 7.74,0 -0.39,-22.88 c -0.21,-12.59 -0.5,-23.06 -0.63,-23.28 -0.13,-0.22 -1.53,-0.4 -3.12,-0.4 l -2.88,0 -0.07,-1.72 c -0.04,-0.95 -0.22,-8.03 -0.4,-15.74 l -0.33,-14.02 -11.2,-0.14 -11.2,-0.14 -0.17,-7 c -0.2,-8.23 -0.05,-9.91 0.94,-9.91 0.59,0 0.73,1.52 0.73,7.94 l 0,7.94 12.67,0 12.67,0 -0.25,-18.92 c -0.14,-10.4 -0.39,-21.59 -0.55,-24.87 l -0.3,-5.95 -12.12,0 -12.12,0 0,9.26 c 0,7.88 -0.12,9.26 -0.79,9.26 -0.68,0 -0.79,-1.38 -0.79,-9.26 l 0,-9.26 -10.85,0 c -10.49,0 -10.85,0.03 -10.85,1.06 0,1.03 -0.35,1.06 -12.96,1.06 -8.29,0 -12.96,0.19 -12.96,0.53 0,0.29 -0.55,0.53 -1.22,0.53 -0.67,0 -1.47,0.26 -1.79,0.57 -1.09,1.09 -2.81,-0.6 -2.81,-2.77 0,-1.07 -0.24,-2.03 -0.54,-2.13 -0.32,-0.11 -0.4,-0.89 -0.2,-1.9 0.34,-1.68 0.4,-1.72 3.19,-1.72 l 2.84,0 0,2.91 0,2.91 12.96,0 12.96,0 0,-1.59 c 0,-1.46 0.15,-1.59 1.85,-1.59 l 1.85,0 0,-4.23 c 0,-2.47 0.22,-4.23 0.53,-4.23 0.31,0 0.53,1.76 0.53,4.23 l 0,4.23 23.04,0 23.04,0 -0.36,-11.51 c -0.2,-6.33 -0.51,-14.01 -0.69,-17.06 l -0.33,-5.56 -12.43,0 -12.43,0 -0.17,1.46 -0.17,1.46 -9.75,0 -9.75,0 0,3.7 c 0,2.12 -0.23,3.7 -0.53,3.7 -0.3,0 -0.53,-1.59 -0.53,-3.7 0,-3.35 -0.1,-3.7 -1.06,-3.7 -0.93,0 -1.06,-0.35 -1.06,-2.91 l 0,-2.91 -4.23,0 c -2.44,0 -4.23,-0.22 -4.23,-0.52 0,-0.34 9.38,-0.57 26.32,-0.66 l 26.32,-0.14 -0.2,-9.09 -0.2,-9.09 2.05,-0.17 2.05,-0.17 -0.2,-26.46 c -0.11,-14.55 -0.3,-26.63 -0.43,-26.85 -0.12,-0.22 -6.28,-0.4 -13.69,-0.4 l -13.46,0 0,-6.35 0,-6.35 16.28,0 16.28,0 2,131.88 c 1.1,72.53 1.99,132.53 1.97,133.33 l -0.02,1.46 -10.58,0 -10.58,0 0,-6.08 z"
       id="path3380"
       inkscape:connector-curvature="0"
       style="opacity:1;fill:#212625;fill-opacity:1;fill-rule:nonzero;stroke:#000000;stroke-width:0.35266665px;stroke-linecap:round;stroke-linejoin:miter;stroke-miterlimit:4;stroke-dasharray:none;stroke-opacity:1" />
    <path
       d="m -0.79,388.88 c 0,-0.85 -0.3,-1.64 -0.66,-1.76 -0.87,-0.29 0.78,-1.99 1.94,-1.99 0.74,0 0.83,-2.01 0.83,-18.25 l 0,-18.25 -1.59,0 c -0.87,0 -1.59,-0.24 -1.59,-0.53 0,-0.29 0.68,-0.53 1.51,-0.53 l 1.51,0 0.31,-7.54 c 0.32,-7.72 1.02,-11.4 3.25,-16.91 2.69,-6.67 7.72,-13.19 13.75,-17.84 2.68,-2.07 2.95,-2.46 2.95,-4.33 l 0,-2.05 7.41,0 7.41,0 0,-22.22 0,-22.22 -7.67,0 -7.67,0 0,-4.5 0,-4.5 15.34,0 15.34,0 0,5.82 0,5.82 -3.44,0 -3.44,0 0,20.9 0,20.9 7.94,0 7.94,0 0,1.82 c 0,1.7 0.21,1.92 3.31,3.45 7.74,3.81 14.35,10.29 18.32,17.97 3.19,6.14 4.27,10.09 4.9,17.77 0.31,3.78 0.77,7.29 1.04,7.8 0.26,0.51 0.48,9.26 0.48,19.44 l 0,18.53 1.32,0 c 0.82,0 1.32,0.3 1.32,0.79 0,0.44 -0.24,0.79 -0.53,0.79 -0.29,0 -0.53,0.71 -0.53,1.59 l 0,1.59 -5.03,0 -5.03,0 -0.01,-25 c -0.01,-28.27 -0.38,-32.91 -3.19,-39.55 -4.86,-11.51 -15.64,-19.8 -27.71,-21.29 -16.1,-2 -31.1,6.54 -37.3,21.25 -2.81,6.66 -3.22,11.69 -3.22,39.82 l 0,24.78 -4.76,0 -4.76,0 0,-1.54 z"
       id="path3382"
       inkscape:connector-curvature="0"
       style="opacity:1;fill:#212625;fill-opacity:1;fill-rule:nonzero;stroke:#000000;stroke-width:0.35266665px;stroke-linecap:round;stroke-linejoin:miter;stroke-miterlimit:4;stroke-dasharray:none;stroke-opacity:1" />
    <path
       d="m 107.8,311.72 -0.13,-36.11 5.95,0.11 5.95,0.11 -5.68,0.17 -5.68,0.17 -0.14,35.83 -0.14,35.83 -0.13,-36.11 z"
       id="path3384"
       inkscape:connector-curvature="0"
       style="opacity:1;fill:#212625;fill-opacity:1;fill-rule:nonzero;stroke:#000000;stroke-width:0.35266665px;stroke-linecap:round;stroke-linejoin:miter;stroke-miterlimit:4;stroke-dasharray:none;stroke-opacity:1" />
    <path
       d="m 20.37,523.6 c 0,-3.3 0.24,-6.22 0.53,-6.51 0.35,-0.35 0.49,-15.87 0.4,-45.48 L 21.16,426.67 -4.9,426.53 c -22.68,-0.12 -26.06,-0.24 -26.06,-0.93 0,-0.59 0.65,-0.79 2.65,-0.79 l 2.65,0 0,-6.48 c 0,-6.39 0.02,-6.49 1.32,-7.09 1,-0.46 1.64,-0.46 2.64,0 1.16,0.54 1.32,0.95 1.32,3.39 l 0,2.78 24.07,0 24.07,0 0,4.23 c 0,3.88 -0.09,4.23 -1.06,4.23 -1.05,0 -1.06,0.35 -1.06,45.24 0,44.89 0.01,45.24 1.06,45.24 1,0 1.06,0.35 1.06,6.61 l 0,6.61 -3.7,0 -3.7,0 0,-5.98 z"
       id="path3386"
       inkscape:connector-curvature="0"
       style="opacity:1;fill:#212625;fill-opacity:1;fill-rule:nonzero;stroke:#000000;stroke-width:0.35266665px;stroke-linecap:round;stroke-linejoin:miter;stroke-miterlimit:4;stroke-dasharray:none;stroke-opacity:1" />
    <path
       d="m -109.78,522.04 c 0,-5.2 4.11,-271.41 4.22,-273.28 0,-0.07 7.75,-0.13 17.2,-0.13 l 17.2,0 0,4.23 0,4.23 -14.49,0 -14.49,0 -0.33,13.89 c -0.18,7.64 -0.48,22.52 -0.66,33.07 l -0.33,19.18 3.28,0 3.28,0 -0.38,12.17 -0.38,12.17 25.48,0 c 15.97,0 25.48,0.19 25.48,0.51 0,0.28 -2.2,0.58 -4.89,0.66 l -4.89,0.15 -0.15,4.89 c -0.08,2.69 -0.38,4.89 -0.66,4.89 -0.28,0 -0.51,-0.71 -0.51,-1.59 l 0,-1.59 -8.73,0 -8.73,0 0,-3.44 0,-3.44 -12.35,0 -12.35,0 -0.35,14.37 c -0.19,7.9 -0.35,16.59 -0.35,19.31 l 0,4.94 21.43,0 21.43,0 0,-7.67 c 0,-4.64 0.2,-7.67 0.52,-7.67 0.31,0 0.57,3.82 0.66,9.66 l 0.14,9.66 14.42,0.14 14.42,0.14 0,-3.18 0,-3.18 2.42,0 c 1.55,0 2.73,0.32 3.3,0.88 0.64,0.64 0.7,0.94 0.23,1.1 -0.45,0.15 -0.66,1.54 -0.66,4.41 0,3.78 -0.1,4.19 -1.01,4.19 -0.56,0 -1.15,0.3 -1.32,0.66 -0.25,0.53 -0.37,0.53 -0.62,0 -0.17,-0.36 -0.76,-0.66 -1.32,-0.66 -0.73,0 -1.01,-0.37 -1.01,-1.32 l 0,-1.32 -15.08,0 -15.08,0 0,-2.38 0,-2.38 -8.73,0 -8.73,0 0,4.23 c 0,2.47 -0.22,4.23 -0.53,4.23 -0.29,0 -0.53,-0.95 -0.53,-2.12 0,-1.53 -0.22,-2.12 -0.79,-2.12 -0.57,0 -0.79,-0.59 -0.79,-2.12 l 0,-2.12 -12.12,0 -12.12,0 -0.3,5.42 c -0.17,2.98 -0.4,13.82 -0.52,24.07 l -0.21,18.65 13.43,0 13.43,0 0,-12.96 c 0,-8.29 0.19,-12.96 0.53,-12.96 0.34,0 0.53,4.94 0.53,13.76 l 0,13.76 -11.56,0 -11.56,0 -0.34,4.05 c -0.19,2.23 -0.34,6.75 -0.34,10.05 l 0,6 -3.44,0 -3.44,0 0,9.39 c 0,5.17 -0.16,18.5 -0.35,29.63 l -0.35,20.24 8.82,0 8.82,0 0,6.08 0,6.08 -11.38,0 -11.38,0 0.01,-7.54 z"
       id="path3388"
       inkscape:connector-curvature="0"
       style="opacity:1;fill:#212625;fill-opacity:1;fill-rule:nonzero;stroke:#000000;stroke-width:0.35266665px;stroke-linecap:round;stroke-linejoin:miter;stroke-miterlimit:4;stroke-dasharray:none;stroke-opacity:1" />
    <path
       d="m -56.35,523.49 0,-6.08 2.12,0 2.12,0 0,-45.5 c 0,-40.09 -0.09,-45.5 -0.79,-45.5 -0.44,0 -0.79,-0.36 -0.79,-0.79 0,-0.59 0.62,-0.79 2.38,-0.79 1.76,0 2.38,0.21 2.38,0.79 0,0.44 -0.47,0.79 -1.06,0.79 -1.05,0 -1.06,0.35 -1.06,45.5 l 0,45.5 1.85,0 1.85,0 0,6.08 0,6.08 -4.5,0 -4.5,0 0,-6.08 z"
       id="path3390"
       inkscape:connector-curvature="0"
       style="opacity:1;fill:#212625;fill-opacity:1;fill-rule:nonzero;stroke:#000000;stroke-width:0.35266665px;stroke-linecap:round;stroke-linejoin:miter;stroke-miterlimit:4;stroke-dasharray:none;stroke-opacity:1" />
    <path
       d="m 136.25,523.49 0,-6.08 4.23,0 4.23,0 0,-45.5 0,-45.5 -3.44,0 c -2.7,0 -3.44,-0.17 -3.44,-0.79 0,-0.64 0.85,-0.79 4.5,-0.79 3.64,0 4.5,0.15 4.5,0.79 0,0.44 -0.24,0.79 -0.53,0.79 -0.35,0 -0.53,15.52 -0.53,45.5 l 0,45.5 1.59,0 1.59,0 0,6.08 0,6.08 -6.35,0 -6.35,0 0,-6.08 z"
       id="path3392"
       inkscape:connector-curvature="0"
       style="opacity:1;fill:#212625;fill-opacity:1;fill-rule:nonzero;stroke:#000000;stroke-width:0.35266665px;stroke-linecap:round;stroke-linejoin:miter;stroke-miterlimit:4;stroke-dasharray:none;stroke-opacity:1" />
    <path
       d="m 101.85,523.49 0,-6.08 1.85,0 1.85,0 0,6.08 0,6.08 -1.85,0 -1.85,0 0,-6.08 z"
       id="path3394"
       inkscape:connector-curvature="0"
       style="opacity:1;fill:#212625;fill-opacity:1;fill-rule:nonzero;stroke:#000000;stroke-width:0.35266665px;stroke-linecap:round;stroke-linejoin:miter;stroke-miterlimit:4;stroke-dasharray:none;stroke-opacity:1" />
    <path
       d="m -27.25,348.06 c 0,-0.29 0.71,-0.53 1.59,-0.53 l 1.59,0 0,-45.24 0,-45.24 -8.2,0 -8.2,0 0,-4.23 0,-4.23 3.7,0 3.7,0 0,-1.59 0,-1.59 11.64,0 11.64,0 0.01,2.51 c 0,1.38 0.15,3.41 0.33,4.5 l 0.33,1.98 -6.95,0 -6.95,0 0,46.56 0,46.56 1.85,0 c 1.02,0 1.85,0.24 1.85,0.53 0,0.31 -1.68,0.53 -3.97,0.53 -2.29,0 -3.97,-0.22 -3.97,-0.53 z"
       id="path3396"
       inkscape:connector-curvature="0"
       style="opacity:1;fill:#212625;fill-opacity:1;fill-rule:nonzero;stroke:#000000;stroke-width:0.35266665px;stroke-linecap:round;stroke-linejoin:miter;stroke-miterlimit:4;stroke-dasharray:none;stroke-opacity:1" />
    <path
       d="m 105.03,348.59 c 0,-0.29 0.24,-0.53 0.53,-0.53 0.35,0 0.53,-12.61 0.53,-36.77 0,-24.16 -0.18,-36.77 -0.53,-36.77 -0.33,0 -0.53,-3.26 -0.53,-8.73 l 0,-8.73 -11.72,0 -11.72,0 0.34,-3.57 c 0.19,-1.96 0.34,-4.58 0.34,-5.82 l 0,-2.25 15.61,0 15.61,0 0,8.73 0,8.73 2.91,0 2.91,0 0,6.42 0,6.42 -5.83,-0.28 c -3.21,-0.15 -5.94,-0.09 -6.08,0.14 -0.14,0.23 -0.1,16.63 0.09,36.44 l 0.35,36.03 5.2,0 c 3.12,0 5.2,0.21 5.2,0.53 0,0.32 -2.56,0.53 -6.61,0.53 -4.06,0 -6.61,-0.2 -6.61,-0.53 z"
       id="path3398"
       inkscape:connector-curvature="0"
       style="opacity:1;fill:#212625;fill-opacity:1;fill-rule:nonzero;stroke:#000000;stroke-width:0.35266665px;stroke-linecap:round;stroke-linejoin:miter;stroke-miterlimit:4;stroke-dasharray:none;stroke-opacity:1" />
    <path
       d="m -16.66,523.46 0,-6.08 3.17,0 3.17,0 0,6.08 0,6.08 -3.17,0 -3.17,0 0,-6.08 z"
       id="path3400"
       inkscape:connector-curvature="0"
       style="opacity:1;fill:#212625;fill-opacity:1;fill-rule:nonzero;stroke:#000000;stroke-width:0.35266665px;stroke-linecap:round;stroke-linejoin:miter;stroke-miterlimit:4;stroke-dasharray:none;stroke-opacity:1" />
  </g>
  <g
     id="rooms"
     transform="matrix(1.5986498,0,0,1.5771648,176.84094,-386.03043)">
    <path
       id="flat2_room"
       d="m -95.400139,334.64026 0,-12.16379 -3.115654,0 -3.115667,0 0.002,-6.51123 c 0.002,-9.07948 0.52999,-45.36972 0.76161,-52.3655 l 0.19154,-5.78528 38.394158,-0.0156 38.394162,-0.0156 0,44.51036 0,44.51036 -35.755857,0 -35.755857,0 0,-12.16384 z"
       inkscape:connector-curvature="0"
       style="opacity:1;fill:#999999;fill-opacity:1;stroke:#000000" />
    <path
       id="flat2_kitchen"
       d="m -21.9,301 0,-45.5 28.6,0 28.6,0 0,21.4 0,21.4 -7.1,0 -7.1,0 0,2.1 c 0,1.9 -0.2,2.3 -2.3,3.7 -4.9,3.4 -10.6,10 -13.5,15.7 -0.6,1.2 -1.7,4.1 -2.5,6.6 -1.2,3.8 -1.5,5.7 -1.7,12.3 l -0.3,7.8 -11.3,0 -11.3,0 0,-45.5 z"
       inkscape:connector-curvature="0"
       style="opacity:1;fill:#999999;fill-opacity:1;stroke:#000000" />
    <path
       id="flat2_toilet"
       d="m -97.62,369.56 c 0,-9.13 0.15,-17.34 0.33,-18.25 l 0.33,-1.65 11.28,0 11.28,0 0.16,3.31 0.16,3.31 8.83,0.14 8.83,0.14 0.04,14.8 0.04,14.8 -20.65,0 -20.65,0 0,-16.6 z"
       inkscape:connector-curvature="0"
       style="opacity:1;fill:#999999;fill-opacity:1;stroke:#000000" />
    <path
       id="flat2_corridor"
       d="m -53.7,370.02 0,-20.37 27.25,0 27.25,0 0,17.46 c 0,17.11 -0.02,17.46 -1.06,17.46 -0.58,0 -1.06,0.24 -1.06,0.53 0,0.33 -3.35,0.53 -8.99,0.53 -5.64,0 -8.99,-0.2 -8.99,-0.53 0,-0.3 -1.59,-0.53 -3.7,-0.53 l -3.7,0 0,2.91 0,2.91 -13.49,0 -13.49,0 0,-20.37 z"
       inkscape:connector-curvature="0"
       style="opacity:1;fill:#999999;fill-opacity:1;stroke:#000000" />
    <path
       id="flat1_corridor"
       d="m -72.22,406.79 0,-17.46 7.94,0 7.94,0 0,2.38 0,2.38 14.81,0 14.81,0 0,1.32 c 0,0.97 0.28,1.32 1.06,1.32 1,0 1.06,0.35 1.06,6.88 0,6.53 -0.05,6.88 -1.06,6.88 -1,0 -1.06,0.35 -1.06,6.88 l 0,6.88 -22.75,0 -22.75,0 0,-17.46 z"
       inkscape:connector-curvature="0"
       style="opacity:1;fill:#999999;fill-opacity:1;stroke:#000000" />
    <path
       id="flat1_toilet"
       d="m -100.08,419.4 c 0.19,-8.78 0.35,-19.13 0.35,-23.02 l 0,-7.06 11.38,0 11.38,0 0,2.12 c 0,1.53 0.22,2.12 0.79,2.12 0.69,0 0.79,2.67 0.79,20.9 l 0,20.9 -12.52,0 -12.52,0 0.35,-15.96 z"
       inkscape:connector-curvature="0"
       style="opacity:1;fill:#999999;fill-opacity:1;stroke:#000000" />
    <path
       id="flat1_kitchen"
       d="m -103.58,502.16 c 0.06,-7.78 0.27,-20.64 0.46,-28.57 l 0.34,-14.42 3.05,0 3.05,0 0.33,-1.98 c 0.18,-1.09 0.33,-5.73 0.33,-10.32 l 0.01,-8.33 11.9,0 11.9,0 0,-5.82 0,-5.82 9.52,0 9.52,0 0,44.71 0,44.71 -25.26,0 -25.26,0 0.12,-14.15 z"
       inkscape:connector-curvature="0"
       style="opacity:1;fill:#999999;fill-opacity:1;stroke:#000000" />
    <path
       id="flat1_room"
       d="m -50.4,471.74 0.14,-44.58 35.32,-0.14 35.32,-0.14 0,44.71 0,44.71 -35.45,0 -35.45,0 0.14,-44.58 z"
       inkscape:connector-curvature="0"
       style="opacity:1;fill:#999999;fill-opacity:1;stroke:#000000" />
    <path
       id="staircase"
       d="m 156.18164,60.578125 c -4.4766,-0.09331 -9.06289,0.710078 -13.52539,2.541016 -11.26,4.62 -19.27914,14.758984 -21.11914,26.708984 -0.51,3.25 -0.70094,11.800315 -0.71094,30.820315 l -0.01,26.32031 -5.5586,0 -5.56054,0 0,-1.58984 0,-1.58985 -8.99024,0 -8.990233,0 0,4.22852 c 0,3.88 -0.09055,4.23047 -1.060547,4.23047 -1.01,0 -1.058594,0.35086 -1.058594,6.88086 0,6.53 0.05859,6.8789 1.058594,6.8789 0.94,0 1.060547,0.34992 1.060547,3.16992 l 0,3.16993 24.070313,0 24.07031,0 0,5.03125 c 0,4.68 -0.0805,5.02929 -1.06054,5.02929 -1.04001,0 -1.06055,0.35024 -1.06055,17.99024 l 0.0215,0.0195 0,17.99023 17.98828,0 17.99024,0 0,-17.99023 c 0,-15.64 -0.0991,-17.99024 -0.78906,-17.99024 -0.65,0 -0.79102,-0.90929 -0.79102,-5.02929 l 0,-5.0293 24.60156,0 24.59961,0 0,-2.12109 c 0,-1.53 0.21906,-2.11914 0.78906,-2.11914 0.67,0 0.79102,-1.47079 0.79102,-10.05079 0,-8.57999 -0.11102,-10.04882 -0.79102,-10.04882 -0.58,0 -0.78906,-0.62086 -0.78906,-2.38086 l 0,-2.38086 -9.79101,0 -9.78907,0 0,1.85156 0,1.84961 -5.82031,0 -5.82031,0 -0.01,-26.32031 c -0.01,-19.02 -0.21093,-27.570315 -0.71093,-30.820315 -2.64844,-17.15625 -17.24652,-28.916756 -33.23438,-29.25 z m 65.92969,92.978515 c 0.0323,0.012 0.068,0.0623 0.10547,0.15234 0.15,0.36 0.15,0.96032 0,1.32032 -0.15,0.37 -0.26953,0.0698 -0.26953,-0.66016 0,-0.5475 0.067,-0.84859 0.16406,-0.8125 z m -84.375,65.88086 0,3.44141 0,3.43945 17.99023,0 17.99024,0 0,-3.43945 0,-3.44141 -17.99024,0 -17.99023,0 z m 0,7.94141 0,3.43945 0,3.43945 17.99023,0 17.99024,0 0,-3.43945 0,-3.43945 -17.99024,0 -17.99023,0 z m 0,7.93945 0,3.43945 0,3.44141 17.99023,0 17.99024,0 0,-3.44141 0,-3.43945 -17.99024,0 -17.99023,0 z m 0,7.40039 0,14.28906 c 0,13.94 0.0305,14.29102 1.06055,14.29102 0.93,0 1.06054,0.35015 1.06054,2.91015 l 0,2.91016 16.13867,0 16.14063,0 0,-2.91016 c 0,-2.23 0.18101,-2.91015 0.79101,-2.91015 0.68,0 0.78907,-1.94102 0.78907,-14.29102 l 0,-14.28906 -17.99024,0 -17.99023,0 z"
       transform="translate(-111.01695,244.49153)"
       inkscape:connector-curvature="0"
       style="opacity:1;fill:#999999;fill-opacity:1;stroke:#000000" />
    <path
       id="flat4_room"
       d="m 69.58,471.61 0,-44.71 37.04,0 37.04,0 0,44.71 0,44.71 -37.04,0 -37.04,0 0,-44.71 z"
       inkscape:connector-curvature="0"
       style="opacity:1;fill:#999999;fill-opacity:1;stroke:#000000" />
    <path
       id="flat4_kitchen"
       d="m 146.83,471.61 0,-44.71 8.73,0 8.73,0 0,6.61 0,6.61 11.03,0 11.03,0 0.35,7.23 c 0.19,3.97 0.35,11 0.35,15.61 l 0,8.38 3.11,0 3.11,0 0.33,13.62 c 0.18,7.49 0.47,17.61 0.65,22.49 l 0.32,8.86 -23.87,0 -23.87,0 0,-44.71 z"
       inkscape:connector-curvature="0"
       style="opacity:1;fill:#999999;fill-opacity:1;stroke:#000000" />
    <path
       id="flat4_toilet"
       d="m 166.93,412.88 0,-24.07 11.64,0 11.64,0 0,6.53 c 0,3.59 0.16,14.42 0.35,24.07 l 0.35,17.55 -11.99,0 -11.99,0 0,-24.07 z"
       inkscape:connector-curvature="0"
       style="opacity:1;fill:#999999;fill-opacity:1;stroke:#000000" />
    <path
       id="flat4_corridor"
       d="m 116.14,418.43 c 0,-3.53 -0.21,-5.82 -0.53,-5.82 -0.33,0 -0.53,-3.7 -0.53,-10.05 l 0,-10.05 1.59,0 c 0.87,0 1.59,-0.24 1.59,-0.53 0,-0.34 4.67,-0.53 12.96,-0.53 l 12.96,0 0,-1.32 0,-1.32 10.05,0 10.05,0 0,17.72 0,17.72 -24.07,0 -24.07,0 0,-5.82 z"
       inkscape:connector-curvature="0"
       style="opacity:1;fill:#999999;fill-opacity:1;stroke:#000000" />
    <path
       id="flat3_toilet"
       d="m 148.42,370.81 0,-14.81 9.79,0 9.79,0 0,-1.59 0,-1.59 11.6,0 c 10.6,0 11.63,0.08 11.87,0.93 0.14,0.51 0.43,7.89 0.63,16.4 l 0.37,15.48 -22.02,0 -22.02,0 0,-14.81 z"
       inkscape:connector-curvature="0"
       style="opacity:1;fill:#999999;fill-opacity:1;stroke:#000000" />
    <path
       id="flat3_corridor"
       d="m 117.73,385.63 0,-2.65 -3.7,0 c -3.35,0 -3.7,0.1 -3.7,1.06 0,1.02 -0.35,1.06 -10.32,1.06 l -10.32,0 0,-17.46 0,-17.46 26.72,0 26.72,0 0,2.7 c 0,2.25 0.17,2.74 1.06,2.97 1.03,0.27 1.06,0.72 1.06,15.03 l 0,14.75 -1.85,0 c -1.62,0 -1.85,0.16 -1.85,1.32 l 0,1.32 -11.9,0 -11.9,0 0,-2.65 z"
       inkscape:connector-curvature="0"
       style="opacity:1;fill:#999999;fill-opacity:1;stroke:#000000" />
    <path
       id="flat3_room"
       d="m 108.37,312 c 0.19,-19.25 0.49,-35.14 0.66,-35.32 0.17,-0.17 18.59,-0.39 40.93,-0.48 l 40.61,-0.16 0.35,15.5 c 0.19,8.53 0.35,20.31 0.35,26.19 l 0,10.68 -1.93,0.16 -1.93,0.16 0.11,9.13 0.11,9.13 -39.8,0 -39.8,0 0.34,-35 0,0 z"
       inkscape:connector-curvature="0"
       style="opacity:1;fill:#999999;fill-opacity:1;stroke:#000000" />
    <path
       id="flat3_kitchen"
       d="m 88.1,342.22 c 0,-16.67 -9.28,-31.76 -23.94,-38.92 -2.79,-1.36 -3.04,-1.63 -3.04,-3.23 l 0,-1.74 -7.67,0 -7.67,0 0,-20.11 0,-20.11 29.37,0 29.37,0 0,8.47 c 0,5.29 0.2,8.47 0.53,8.47 0.35,0 0.53,12.35 0.53,35.98 l 0,35.98 -8.73,0 -8.73,0 0,-4.78 z"
       inkscape:connector-curvature="0"
       style="opacity:1;fill:#999999;fill-opacity:1;stroke:#000000" />
    <rect
       id="staircase_right"
       ng-click="state.outputs.bulb_stairsright=!state.outputs.bulb_stairsright"
       width="63.492062"
       height="26.455027"
       x="47.184105"
       y="388.93594"
       style="opacity:0;fill:#cccccc" />
    <rect
       id="staircase_left"
       ng-click="state.outputs.bulb_stairsleft=!state.outputs.bulb_stairsleft"
       width="63.492062"
       height="26.455027"
       x="-18.424356"
       y="388.40689"
       style="opacity:0;fill:#cccccc" />
    <rect
       id="staircase_enterance"
       ng-click="state.outputs.bulb_enterance=!state.outputs.bulb_enterance"
       width="37.566135"
       height="93.650795"
       x="26.549189"
       y="427.5603"
       style="opacity:0;fill:#cccccc" />
  </g>
  <g
     id="windows"
     transform="matrix(1.5986498,0,0,1.5771648,176.84094,-386.03043)">
    <path
       d="m -86.5,523.46 0,-6.08 14.55,0 14.55,0 0,6.08 0,6.08 -14.55,0 -14.55,0 0,-6.08 z m 40.21,0 0,-6.08 14.55,0 14.55,0 0,6.08 0,6.08 -14.55,0 -14.55,0 0,-6.08"
       id="path3424"
       inkscape:connector-curvature="0"
       style="opacity:1;fill:#cccccc;fill-opacity:1;stroke:#000000;stroke-width:0.05256524;stroke-miterlimit:4;stroke-dasharray:none;stroke-opacity:1" />
    <path
       d="m -46.29,523.46 0,-6.08 14.55,0 14.55,0 0,6.08 0,6.08 -14.55,0 -14.55,0 0,-6.08 z"
       id="path3426"
       inkscape:connector-curvature="0"
       style="opacity:1;fill:#cccccc;fill-opacity:1;stroke:#000000;stroke-width:0.05256524;stroke-miterlimit:4;stroke-dasharray:none;stroke-opacity:1" />
    <path
       d="m -9.79,523.46 0,-6.08 14.55,0 14.55,0 0,6.08 0,6.08 -14.55,0 -14.55,0 0,-6.08 z"
       id="path3428"
       inkscape:connector-curvature="0"
       style="opacity:1;fill:#cccccc;fill-opacity:1;stroke:#000000;stroke-width:0.05256524;stroke-miterlimit:4;stroke-dasharray:none;stroke-opacity:1" />
    <path
       d="m 28.84,526.1 0,-3.44 16.14,0 16.14,0 0,3.44 0,3.44 -16.14,0 -16.14,0 0,-3.44 z"
       id="path3430"
       inkscape:connector-curvature="0"
       style="opacity:1;fill:#cccccc;fill-opacity:1;stroke:#000000;stroke-width:0.05256524;stroke-miterlimit:4;stroke-dasharray:none;stroke-opacity:1" />
    <path
       d="m 72.23,523.46 0,-6.08 14.29,0 14.29,0 0,6.08 0,6.08 -14.29,0 -14.29,0 0,-6.08 z"
       id="path3432"
       inkscape:connector-curvature="0"
       style="opacity:1;fill:#cccccc;fill-opacity:1;stroke:#000000;stroke-width:0.05256524;stroke-miterlimit:4;stroke-dasharray:none;stroke-opacity:1" />
    <path
       d="m 106.62,523.73 0,-6.36 14.57,0 14.57,0 -0.15,6.22 -0.15,6.22 -14.42,0.14 -14.42,0.14 0,-6.36 z"
       id="path3434"
       inkscape:connector-curvature="0"
       style="opacity:1;fill:#cccccc;fill-opacity:1;stroke:#000000;stroke-width:0.05256524;stroke-miterlimit:4;stroke-dasharray:none;stroke-opacity:1" />
    <path
       d="m 150,523.72 0,-6.35 14.29,0 14.29,0 0,6.35 0,6.35 -14.29,0 -14.29,0 0,-6.35 z"
       id="path3436"
       inkscape:connector-curvature="0"
       style="opacity:1;fill:#cccccc;fill-opacity:1;stroke:#000000;stroke-width:0.05256524;stroke-miterlimit:4;stroke-dasharray:none;stroke-opacity:1" />
    <path
       d="m 119.84,269.23 0,-6.35 21.96,0 21.96,0 0,6.35 0,6.35 -21.96,0 -21.96,0 0,-6.35 z"
       id="path3438"
       inkscape:connector-curvature="0"
       style="opacity:1;fill:#cccccc;fill-opacity:1;stroke:#000000;stroke-width:0.05256524;stroke-miterlimit:4;stroke-dasharray:none;stroke-opacity:1" />
    <path
       d="m 52.12,251.24 0,-5.82 14.55,0 14.55,0 0,5.82 0,5.82 -14.55,0 -14.55,0 0,-5.82 z"
       id="path3440"
       inkscape:connector-curvature="0"
       style="opacity:1;fill:#cccccc;fill-opacity:1;stroke:#000000;stroke-width:0.05256524;stroke-miterlimit:4;stroke-dasharray:none;stroke-opacity:1" />
    <path
       d="m -8.73,249.91 0,-4.5 14.55,0 14.55,0 0,4.5 0,4.5 -14.55,0 -14.55,0 0,-4.5 z"
       id="path3442"
       inkscape:connector-curvature="0"
       style="opacity:1;fill:#cccccc;fill-opacity:1;stroke:#000000;stroke-width:0.05256524;stroke-miterlimit:4;stroke-dasharray:none;stroke-opacity:1" />
    <path
       d="m -70.1,252.82 0,-4.23 14.29,0 14.29,0 0,4.23 0,4.23 -14.29,0 -14.29,0 0,-4.23 z"
       id="path3444"
       inkscape:connector-curvature="0"
       style="opacity:1;fill:#cccccc;fill-opacity:1;stroke:#000000;stroke-width:0.05256524;stroke-miterlimit:4;stroke-dasharray:none;stroke-opacity:1" />
    <path
       d="m 88.01,426.57 c 10.34,-0.04 27.27,-0.04 37.61,0 10.34,0.04 1.88,0.08 -18.81,0.08 -20.69,0 -29.15,-0.04 -18.81,-0.08 z"
       id="path3446"
       inkscape:connector-curvature="0"
       style="opacity:1;fill:#cccccc;fill-opacity:1;stroke:#000000;stroke-width:0.05256524;stroke-miterlimit:4;stroke-dasharray:none;stroke-opacity:1" />
    <path
       d="m 119.17,425.59 0,-0.79 9.13,0 9.13,0 0,0.79 0,0.79 -9.13,0 -9.13,0 0,-0.79 z m 28.39,0 0,-0.79 8.08,0 8.08,0 0,0.79 0,0.79 -8.08,0 -8.08,0 0,-0.79"
       id="path3448"
       inkscape:connector-curvature="0"
       style="opacity:1;fill:#cccccc;fill-opacity:1;stroke:#000000;stroke-width:0.05256524;stroke-miterlimit:4;stroke-dasharray:none;stroke-opacity:1" />
    <path
       d="m 147.56,425.59 0,-0.79 8.08,0 8.08,0 0,0.79 0,0.79 -8.08,0 -8.08,0 0,-0.79 z"
       id="path3450"
       inkscape:connector-curvature="0"
       style="opacity:1;fill:#cccccc;fill-opacity:1;stroke:#000000;stroke-width:0.05256524;stroke-miterlimit:4;stroke-dasharray:none;stroke-opacity:1" />
    <path
       d="m 164.91,414.48 0,-7.03 0.79,0 0.79,0 0,7.03 0,7.03 -0.79,0 -0.79,0 0,-7.03 z"
       id="path3452"
       inkscape:connector-curvature="0"
       style="opacity:1;fill:#cccccc;fill-opacity:1;stroke:#000000;stroke-width:0.05256524;stroke-miterlimit:4;stroke-dasharray:none;stroke-opacity:1" />
    <path
       d="m 91.84,386.43 0,-0.79 8.87,0 8.87,0 0,0.79 0,0.79 -8.87,0 -8.87,0 0,-0.79 z"
       id="path3454"
       inkscape:connector-curvature="0"
       style="opacity:1;fill:#cccccc;fill-opacity:1;stroke:#000000;stroke-width:0.05256524;stroke-miterlimit:4;stroke-dasharray:none;stroke-opacity:1" />
    <path
       d="m 112.87,402.59 0,-9.07 0.79,0 0.79,0 0,9.07 0,9.07 -0.79,0 -0.79,0 0,-9.07 z"
       id="path3456"
       inkscape:connector-curvature="0"
       style="opacity:1;fill:#cccccc;fill-opacity:1;stroke:#000000;stroke-width:0.05256524;stroke-miterlimit:4;stroke-dasharray:none;stroke-opacity:1" />
    <path
       d="m 146.11,369.84 0,-7.1 0.79,0 0.79,0 0,7.1 0,7.1 -0.79,0 -0.79,0 0,-7.1 z"
       id="path3458"
       inkscape:connector-curvature="0"
       style="opacity:1;fill:#cccccc;fill-opacity:1;stroke:#000000;stroke-width:0.05256524;stroke-miterlimit:4;stroke-dasharray:none;stroke-opacity:1" />
    <path
       d="m 118.91,348.49 0,-0.85 8.15,0 8.15,0 0,0.85 0,0.85 -8.15,0 -8.15,0 0,-0.85 z"
       id="path3460"
       inkscape:connector-curvature="0"
       style="opacity:1;fill:#cccccc;fill-opacity:1;stroke:#000000;stroke-width:0.05256524;stroke-miterlimit:4;stroke-dasharray:none;stroke-opacity:1" />
    <path
       d="m 89.34,348.49 0,-0.85 7.56,0 7.56,0 0,0.85 0,0.85 -7.56,0 -7.56,0 0,-0.85 z"
       id="path3462"
       inkscape:connector-curvature="0"
       style="opacity:1;fill:#cccccc;fill-opacity:1;stroke:#000000;stroke-width:0.05256524;stroke-miterlimit:4;stroke-dasharray:none;stroke-opacity:1" />
    <path
       d="m -18.63,348.02 0,-0.85 8.15,0 8.15,0 0,0.85 0,0.85 -8.15,0 -8.15,0 0,-0.85 z"
       id="path3464"
       inkscape:connector-curvature="0"
       style="opacity:1;fill:#cccccc;fill-opacity:1;stroke:#000000;stroke-width:0.05256524;stroke-miterlimit:4;stroke-dasharray:none;stroke-opacity:1" />
    <path
       d="m -44.25,348.02 0,-0.85 8.15,0 8.15,0 0,0.85 0,0.85 -8.15,0 -8.15,0 0,-0.85 z"
       id="path3466"
       inkscape:connector-curvature="0"
       style="opacity:1;fill:#cccccc;fill-opacity:1;stroke:#000000;stroke-width:0.05256524;stroke-miterlimit:4;stroke-dasharray:none;stroke-opacity:1" />
    <path
       d="m -55.95,365.17 0,-6.05 0.79,0 0.79,0 0,6.05 0,6.05 -0.79,0 -0.79,0 0,-6.04 z"
       id="path3468"
       inkscape:connector-curvature="0"
       style="opacity:1;fill:#cccccc;fill-opacity:1;stroke:#000000;stroke-width:0.05256524;stroke-miterlimit:4;stroke-dasharray:none;stroke-opacity:1" />
    <path
       d="m -74.55,403.56 0,-6.05 0.79,0 0.79,0 0,6.05 0,6.05 -0.79,0 -0.79,0 0,-6.04 z"
       id="path3470"
       inkscape:connector-curvature="0"
       style="opacity:1;fill:#cccccc;fill-opacity:1;stroke:#000000;stroke-width:0.05256524;stroke-miterlimit:4;stroke-dasharray:none;stroke-opacity:1" />
    <path
       d="m -70.61,425.57 0,-0.85 8.15,0 8.15,0 0,0.85 0,0.85 -8.15,0 -8.15,0 0,-0.85 z"
       id="path3472"
       inkscape:connector-curvature="0"
       style="opacity:1;fill:#cccccc;fill-opacity:1;stroke:#000000;stroke-width:0.05256524;stroke-miterlimit:4;stroke-dasharray:none;stroke-opacity:1" />
    <path
       d="m -48.14,425.57 0,-0.85 8.15,0 8.15,0 0,0.85 0,0.85 -8.15,0 -8.15,0 0,-0.85 z"
       id="path3474"
       inkscape:connector-curvature="0"
       style="opacity:1;fill:#cccccc;fill-opacity:1;stroke:#000000;stroke-width:0.05256524;stroke-miterlimit:4;stroke-dasharray:none;stroke-opacity:1" />
    <path
       d="m -23.83,403.56 0,-6.05 0.79,0 0.79,0 0,6.05 0,6.05 -0.79,0 -0.79,0 0,-6.04 z"
       id="path3476"
       inkscape:connector-curvature="0"
       style="opacity:1;fill:#cccccc;fill-opacity:1;stroke:#000000;stroke-width:0.05256524;stroke-miterlimit:4;stroke-dasharray:none;stroke-opacity:1" />
  </g>
  <g
     id="bulbs"
     transform="matrix(1.5986498,0,0,1.5771648,176.84094,-386.03043)">
    <g
       id="bulb_4room"
       transform="matrix(0.0434451,0,0,0.04487424,93.275737,459.66227)">
      <use
         xlink:href="#bulb_on"
         ng-if="state.outputs.bulb_4room==true"
         id="use3480"
         x="0"
         y="0"
         width="100%"
         height="100%" />
      <use
         xlink:href="#bulb_off"
         ng-if="state.outputs.bulb_4room==false"
         id="use3482"
         x="0"
         y="0"
         width="100%"
         height="100%" />
    </g>
    <g
       id="bulb_1room"
       transform="matrix(0.0434451,0,0,0.04487424,-24.724263,459.66227)">
      <use
         xlink:href="#bulb_on"
         ng-if="state.outputs.bulb_1room==true"
         id="use3485"
         x="0"
         y="0"
         width="100%"
         height="100%" />
      <use
         xlink:href="#bulb_off"
         ng-if="state.outputs.bulb_1room==false"
         id="use3487"
         x="0"
         y="0"
         width="100%"
         height="100%" />
    </g>
    <g
       id="bulb_4kitchen"
       transform="matrix(0.0434451,0,0,0.04487424,157.27574,459.66227)">
      <use
         xlink:href="#bulb_on"
         ng-if="state.outputs.bulb_4kitchen==true"
         id="use3490"
         x="0"
         y="0"
         width="100%"
         height="100%" />
      <use
         xlink:href="#bulb_off"
         ng-if="state.outputs.bulb_4kitchen==false"
         id="use3492"
         x="0"
         y="0"
         width="100%"
         height="100%" />
    </g>
    <g
       id="bulb_1kitchen"
       transform="matrix(0.0434451,0,0,0.04487424,-90.724263,459.66227)">
      <use
         xlink:href="#bulb_on"
         ng-if="state.outputs.bulb_1kitchen==true"
         id="use3495"
         x="0"
         y="0"
         width="100%"
         height="100%" />
      <use
         xlink:href="#bulb_off"
         ng-if="state.outputs.bulb_1kitchen==false"
         id="use3497"
         x="0"
         y="0"
         width="100%"
         height="100%" />
    </g>
    <g
       id="bulb_4toilet"
       transform="matrix(0.0434451,0,0,0.04487424,167.27574,401.66227)">
      <use
         xlink:href="#bulb_on"
         ng-if="state.outputs.bulb_4toilet==true"
         id="use3500"
         x="0"
         y="0"
         width="100%"
         height="100%" />
      <use
         xlink:href="#bulb_off"
         ng-if="state.outputs.bulb_4toilet==false"
         id="use3502"
         x="0"
         y="0"
         width="100%"
         height="100%" />
    </g>
    <g
       id="bulb_1toilet"
       transform="matrix(0.0434451,0,0,0.04487424,-98.72426,401.66227)">
      <use
         xlink:href="#bulb_on"
         ng-if="state.outputs.bulb_1toilet==true"
         id="use3505"
         x="0"
         y="0"
         width="100%"
         height="100%" />
      <use
         xlink:href="#bulb_off"
         ng-if="state.outputs.bulb_1toilet==false"
         id="use3507"
         x="0"
         y="0"
         width="100%"
         height="100%" />
    </g>
    <g
       id="bulb_4corridor"
       transform="matrix(0.0434451,0,0,0.04487424,131.27574,395.66227)">
      <use
         xlink:href="#bulb_on"
         ng-if="state.outputs.bulb_4corridor==true"
         id="use3510"
         x="0"
         y="0"
         width="100%"
         height="100%" />
      <use
         xlink:href="#bulb_off"
         ng-if="state.outputs.bulb_4corridor==false"
         id="use3512"
         x="0"
         y="0"
         width="100%"
         height="100%" />
    </g>
    <g
       id="bulb_1corridor"
       transform="matrix(0.0434451,0,0,0.04487424,-58.72426,395.66227)">
      <use
         xlink:href="#bulb_on"
         ng-if="state.outputs.bulb_1corridor==true"
         id="use3515"
         x="0"
         y="0"
         width="100%"
         height="100%" />
      <use
         xlink:href="#bulb_off"
         ng-if="state.outputs.bulb_1corridor==false"
         id="use3517"
         x="0"
         y="0"
         width="100%"
         height="100%" />
    </g>
    <g
       id="bulb_stairsright"
       transform="matrix(0.0434451,0,0,0.04487424,89.27574,391.66227)">
      <use
         xlink:href="#bulb_on"
         ng-if="state.outputs.bulb_stairsright==true"
         id="use3520"
         x="0"
         y="0"
         width="100%"
         height="100%" />
      <use
         xlink:href="#bulb_off"
         ng-if="state.outputs.bulb_stairsright==false"
         id="use3522"
         x="0"
         y="0"
         width="100%"
         height="100%" />
    </g>
    <g
       id="bulb_stairsleft"
       transform="matrix(0.0434451,0,0,0.04487424,-20.72426,391.66227)">
      <use
         xlink:href="#bulb_on"
         ng-if="state.outputs.bulb_stairsleft==true"
         id="use3525"
         x="0"
         y="0"
         width="100%"
         height="100%" />
      <use
         xlink:href="#bulb_off"
         ng-if="state.outputs.bulb_stairsleft==false"
         id="use3527"
         x="0"
         y="0"
         width="100%"
         height="100%" />
    </g>
    <g
       id="bulb_enterance"
       transform="matrix(0.0434451,0,0,0.04487424,33.27574,433.66227)">
      <use
         xlink:href="#bulb_on"
         ng-if="state.outputs.bulb_enterance==true"
         id="use3530"
         x="0"
         y="0"
         width="100%"
         height="100%" />
      <use
         xlink:href="#bulb_off"
         ng-if="state.outputs.bulb_enterance==false"
         id="use3532"
         x="0"
         y="0"
         width="100%"
         height="100%" />
    </g>
    <g
       id="bulb_outside"
       transform="matrix(0.0434451,0,0,0.04487424,20.470862,535.49154)">
      <use
         xlink:href="#bulb_on"
         ng-if="state.outputs.bulb_outside==true"
         id="use3535"
         x="0"
         y="0"
         width="100%"
         height="100%" />
      <use
         xlink:href="#bulb_off"
         ng-if="state.outputs.bulb_outside==false"
         id="use3537"
         x="0"
         y="0"
         width="100%"
         height="100%" />
    </g>
    <g
       id="key_main_door"
       transform="matrix(0.04883604,0,0,0.04753905,51.163831,537.03965)">
      <use
         xlink:href="#key"
         ng-if="state.inputs.key_main_door==true"
         id="use3540"
         x="0"
         y="0"
         width="100%"
         height="100%" />
    </g>
    <g
       id="motion_enterance"
       transform="matrix(0.25275859,0,0,-0.26066797,29.379801,437.45321)">
      <use
         xlink:href="#motion"
         ng-if="state.outputs.motion_enterance==true"
         id="use3543"
         x="0"
         y="0"
         width="100%"
         height="100%" />
    </g>
    <g
       id="motion_stairsleft"
       transform="matrix(0.25275859,0,0,0.26066797,2.8024979,404.48521)">
      <use
         xlink:href="#motion"
         ng-if="state.outputs.motion_stairsleft==true"
         id="use3546"
         x="0"
         y="0"
         width="100%"
         height="100%" />
    </g>
    <g
       id="motion_stairsright"
       transform="matrix(0.25275859,0,0,0.26066797,74.802498,404.48521)">
      <use
         xlink:href="#motion"
         ng-if="state.outputs.motion_stairsright==true"
         id="use3549"
         x="0"
         y="0"
         width="100%"
         height="100%" />
    </g>
    <g
       id="door_enterance"
       transform="matrix(0.05791373,0,0,0.0471743,30.605273,495.79719)">
      <use
         xlink:href="#doors"
         ng-if="state.outputs.door_enterance==true"
         id="use3552"
         x="0"
         y="0"
         width="100%"
         height="100%" />
    </g>
  </g>
</svg>
